<?xml version="1.0" encoding="UTF-8" standalone="no"?>
<!DOCTYPE svg PUBLIC "-//W3C//DTD SVG 1.1//EN"
 "http://www.w3.org/Graphics/SVG/1.1/DTD/svg11.dtd">
<!-- Generated by graphviz version 2.40.1 (20161225.0304)
 -->
<!-- Title: dependencies Pages: 1 -->
<svg width="1194pt" height="284pt"
 viewBox="0.00 0.00 1194.00 284.00" xmlns="http://www.w3.org/2000/svg" xmlns:xlink="http://www.w3.org/1999/xlink">
<g id="graph0" class="graph" transform="scale(1 1) rotate(0) translate(4 280)">
<title>dependencies</title>
<polygon fill="#ffffff" stroke="transparent" points="-4,4 -4,-280 1190,-280 1190,4 -4,4"/>
<text text-anchor="start" x="572.0091" y="-42.4" font-family="sans-serif" font-weight="bold" font-size="14.00" fill="#000000">Legend</text>
<polygon fill="#ffffb3" stroke="transparent" points="359,-10 359,-30 379,-30 379,-10 359,-10"/>
<text text-anchor="start" x="382.629" y="-15.4" font-family="sans-serif" font-size="14.00" fill="#000000"> &#160;Declarations</text>
<polygon fill="#8dd3c7" stroke="transparent" points="472,-10 472,-30 492,-30 492,-10 472,-10"/>
<text text-anchor="start" x="495.7251" y="-15.4" font-family="sans-serif" font-size="14.00" fill="#000000"> &#160;Module</text>
<polygon fill="#80b1d3" stroke="transparent" points="558,-10 558,-30 578,-30 578,-10 558,-10"/>
<text text-anchor="start" x="581.7812" y="-15.4" font-family="sans-serif" font-size="14.00" fill="#000000"> &#160;Bootstrap</text>
<polygon fill="#fdb462" stroke="transparent" points="655,-10 655,-30 675,-30 675,-10 655,-10"/>
<text text-anchor="start" x="678.6732" y="-15.4" font-family="sans-serif" font-size="14.00" fill="#000000"> &#160;Providers</text>
<polygon fill="#fb8072" stroke="transparent" points="751,-10 751,-30 771,-30 771,-10 751,-10"/>
<text text-anchor="start" x="774.7258" y="-15.4" font-family="sans-serif" font-size="14.00" fill="#000000"> &#160;Exports</text>
<g id="clust1" class="cluster">
<title>cluster_CoreModule</title>
<polygon fill="none" stroke="#000000" stroke-dasharray="1,5" points="8,-70 8,-268 1178,-268 1178,-70 8,-70"/>
</g>
<g id="clust2" class="cluster">
<title>cluster_CoreModule_declarations</title>
<polygon fill="none" stroke="#000000" points="508,-78 508,-130 1170,-130 1170,-78 508,-78"/>
</g>
<g id="clust8" class="cluster">
<title>cluster_CoreModule_exports</title>
<polygon fill="none" stroke="#000000" points="430,-208 430,-260 732,-260 732,-208 430,-208"/>
</g>
<g id="clust10" class="cluster">
<title>cluster_CoreModule_providers</title>
<polygon fill="none" stroke="#000000" points="16,-78 16,-130 500,-130 500,-78 16,-78"/>
</g>
<!-- NavbarComponent -->
<g id="node1" class="node">
<title>NavbarComponent</title>
<polygon fill="#ffffb3" stroke="#000000" points="1162.0297,-122 1039.9703,-122 1039.9703,-86 1162.0297,-86 1162.0297,-122"/>
<text text-anchor="middle" x="1101" y="-99.8" font-family="Times,serif" font-size="14.00" fill="#000000">NavbarComponent</text>
</g>
<!-- CoreModule -->
<g id="node5" class="node">
<title>CoreModule</title>
<polygon fill="#8dd3c7" stroke="#000000" points="628.2619,-187 625.2619,-191 604.2619,-191 601.2619,-187 541.7381,-187 541.7381,-151 628.2619,-151 628.2619,-187"/>
<text text-anchor="middle" x="585" y="-164.8" font-family="Times,serif" font-size="14.00" fill="#000000">CoreModule</text>
</g>
<!-- NavbarComponent&#45;&gt;CoreModule -->
<g id="edge1" class="edge">
<title>NavbarComponent&#45;&gt;CoreModule</title>
<path fill="none" stroke="#000000" d="M1101,-122.2921C1101,-144.2057 1101,-178 1101,-178 1101,-178 638.5492,-178 638.5492,-178"/>
<polygon fill="#000000" stroke="#000000" points="638.5492,-174.5001 628.5492,-178 638.5491,-181.5001 638.5492,-174.5001"/>
</g>
<!-- PageForbiddenComponent -->
<g id="node2" class="node">
<title>PageForbiddenComponent</title>
<polygon fill="#ffffb3" stroke="#000000" points="1022.0926,-122 855.9074,-122 855.9074,-86 1022.0926,-86 1022.0926,-122"/>
<text text-anchor="middle" x="939" y="-99.8" font-family="Times,serif" font-size="14.00" fill="#000000">PageForbiddenComponent</text>
</g>
<!-- PageForbiddenComponent&#45;&gt;CoreModule -->
<g id="edge2" class="edge">
<title>PageForbiddenComponent&#45;&gt;CoreModule</title>
<path fill="none" stroke="#000000" d="M939,-122.1061C939,-141.3391 939,-169 939,-169 939,-169 638.4073,-169 638.4073,-169"/>
<polygon fill="#000000" stroke="#000000" points="638.4074,-165.5001 628.4073,-169 638.4073,-172.5001 638.4074,-165.5001"/>
</g>
<!-- PageNotFoundComponent -->
<g id="node3" class="node">
<title>PageNotFoundComponent</title>
<polygon fill="#ffffb3" stroke="#000000" points="837.8243,-122 672.1757,-122 672.1757,-86 837.8243,-86 837.8243,-122"/>
<text text-anchor="middle" x="755" y="-99.8" font-family="Times,serif" font-size="14.00" fill="#000000">PageNotFoundComponent</text>
</g>
<!-- PageNotFoundComponent&#45;&gt;CoreModule -->
<g id="edge3" class="edge">
<title>PageNotFoundComponent&#45;&gt;CoreModule</title>
<path fill="none" stroke="#000000" d="M698.1762,-122.027C698.1762,-138.3976 698.1762,-160 698.1762,-160 698.1762,-160 638.4332,-160 638.4332,-160"/>
<polygon fill="#000000" stroke="#000000" points="638.4332,-156.5001 628.4332,-160 638.4332,-163.5001 638.4332,-156.5001"/>
</g>
<!-- ToastLinkComponent -->
<g id="node4" class="node">
<title>ToastLinkComponent</title>
<polygon fill="#ffffb3" stroke="#000000" points="654.3781,-122 515.6219,-122 515.6219,-86 654.3781,-86 654.3781,-122"/>
<text text-anchor="middle" x="585" y="-99.8" font-family="Times,serif" font-size="14.00" fill="#000000">ToastLinkComponent</text>
</g>
<!-- ToastLinkComponent&#45;&gt;CoreModule -->
<g id="edge4" class="edge">
<title>ToastLinkComponent&#45;&gt;CoreModule</title>
<path fill="none" stroke="#000000" d="M585,-122.1061C585,-122.1061 585,-140.991 585,-140.991"/>
<polygon fill="#000000" stroke="#000000" points="581.5001,-140.9909 585,-150.991 588.5001,-140.991 581.5001,-140.9909"/>
</g>
<!-- NavbarComponent  -->
<g id="node6" class="node">
<title>NavbarComponent </title>
<polygon fill="#fb8072" stroke="#000000" points="724.0288,-252 597.9712,-252 597.9712,-216 724.0288,-216 724.0288,-252"/>
<text text-anchor="middle" x="661" y="-229.8" font-family="Times,serif" font-size="14.00" fill="#000000">NavbarComponent </text>
</g>
<!-- CoreModule&#45;&gt;NavbarComponent  -->
<g id="edge5" class="edge">
<title>CoreModule&#45;&gt;NavbarComponent </title>
<path fill="none" stroke="#000000" stroke-dasharray="5,2" d="M613.1832,-187.1061C613.1832,-187.1061 613.1832,-205.991 613.1832,-205.991"/>
<polygon fill="#000000" stroke="#000000" points="609.6833,-205.9909 613.1832,-215.991 616.6833,-205.991 609.6833,-205.9909"/>
</g>
<!-- ToastLinkComponent  -->
<g id="node7" class="node">
<title>ToastLinkComponent </title>
<polygon fill="#fb8072" stroke="#000000" points="580.3785,-252 437.6215,-252 437.6215,-216 580.3785,-216 580.3785,-252"/>
<text text-anchor="middle" x="509" y="-229.8" font-family="Times,serif" font-size="14.00" fill="#000000">ToastLinkComponent </text>
</g>
<!-- CoreModule&#45;&gt;ToastLinkComponent  -->
<g id="edge6" class="edge">
<title>CoreModule&#45;&gt;ToastLinkComponent </title>
<path fill="none" stroke="#000000" stroke-dasharray="5,2" d="M560.9041,-187.1061C560.9041,-187.1061 560.9041,-205.991 560.9041,-205.991"/>
<polygon fill="#000000" stroke="#000000" points="557.4042,-205.9909 560.9041,-215.991 564.4042,-205.991 557.4042,-205.9909"/>
</g>
<!-- AppHttp -->
<g id="node8" class="node">
<title>AppHttp</title>
<ellipse fill="#fdb462" stroke="#000000" cx="447" cy="-104" rx="44.6645" ry="18"/>
<text text-anchor="middle" x="447" y="-99.8" font-family="Times,serif" font-size="14.00" fill="#000000">AppHttp</text>
</g>
<!-- AppHttp&#45;&gt;CoreModule -->
<g id="edge7" class="edge">
<title>AppHttp&#45;&gt;CoreModule</title>
<path fill="none" stroke="#000000" d="M464.8215,-120.8018C464.8215,-137.297 464.8215,-160 464.8215,-160 464.8215,-160 531.6128,-160 531.6128,-160"/>
<polygon fill="#000000" stroke="#000000" points="531.6128,-163.5001 541.6128,-160 531.6128,-156.5001 531.6128,-163.5001"/>
</g>
<!-- CategoriaDespesaService -->
<g id="node9" class="node">
<title>CategoriaDespesaService</title>
<ellipse fill="#fdb462" stroke="#000000" cx="274" cy="-104" rx="109.9053" ry="18"/>
<text text-anchor="middle" x="274" y="-99.8" font-family="Times,serif" font-size="14.00" fill="#000000">CategoriaDespesaService</text>
</g>
<!-- CategoriaDespesaService&#45;&gt;CoreModule -->
<g id="edge8" class="edge">
<title>CategoriaDespesaService&#45;&gt;CoreModule</title>
<path fill="none" stroke="#000000" d="M274,-122.1061C274,-141.3391 274,-169 274,-169 274,-169 531.4293,-169 531.4293,-169"/>
<polygon fill="#000000" stroke="#000000" points="531.4294,-172.5001 541.4293,-169 531.4293,-165.5001 531.4294,-172.5001"/>
</g>
<!-- ToastService -->
<g id="node10" class="node">
<title>ToastService</title>
<ellipse fill="#fdb462" stroke="#000000" cx="85" cy="-104" rx="61.3916" ry="18"/>
<text text-anchor="middle" x="85" y="-99.8" font-family="Times,serif" font-size="14.00" fill="#000000">ToastService</text>
</g>
<!-- ToastService&#45;&gt;CoreModule -->
<g id="edge9" class="edge">
<title>ToastService&#45;&gt;CoreModule</title>
<path fill="none" stroke="#000000" d="M85,-122.2921C85,-144.2057 85,-178 85,-178 85,-178 531.503,-178 531.503,-178"/>
<polygon fill="#000000" stroke="#000000" points="531.503,-181.5001 541.503,-178 531.5029,-174.5001 531.503,-181.5001"/>
</g>
</g>
</svg>
