<?xml version="1.0" encoding="UTF-8" standalone="no"?>
<!DOCTYPE svg PUBLIC "-//W3C//DTD SVG 1.1//EN"
 "http://www.w3.org/Graphics/SVG/1.1/DTD/svg11.dtd">
<!-- Generated by graphviz version 2.40.1 (20161225.0304)
 -->
<!-- Title: dependencies Pages: 1 -->
<svg width="614pt" height="211pt"
 viewBox="0.00 0.00 614.00 211.00" xmlns="http://www.w3.org/2000/svg" xmlns:xlink="http://www.w3.org/1999/xlink">
<g id="graph0" class="graph" transform="scale(1 1) rotate(0) translate(4 207)">
<title>dependencies</title>
<polygon fill="#ffffff" stroke="transparent" points="-4,4 -4,-207 610,-207 610,4 -4,4"/>
<text text-anchor="start" x="282.0091" y="-42.4" font-family="sans-serif" font-weight="bold" font-size="14.00" fill="#000000">Legend</text>
<polygon fill="#ffffb3" stroke="transparent" points="69,-10 69,-30 89,-30 89,-10 69,-10"/>
<text text-anchor="start" x="92.629" y="-15.4" font-family="sans-serif" font-size="14.00" fill="#000000"> &#160;Declarations</text>
<polygon fill="#8dd3c7" stroke="transparent" points="182,-10 182,-30 202,-30 202,-10 182,-10"/>
<text text-anchor="start" x="205.7251" y="-15.4" font-family="sans-serif" font-size="14.00" fill="#000000"> &#160;Module</text>
<polygon fill="#80b1d3" stroke="transparent" points="268,-10 268,-30 288,-30 288,-10 268,-10"/>
<text text-anchor="start" x="291.7812" y="-15.4" font-family="sans-serif" font-size="14.00" fill="#000000"> &#160;Bootstrap</text>
<polygon fill="#fdb462" stroke="transparent" points="365,-10 365,-30 385,-30 385,-10 365,-10"/>
<text text-anchor="start" x="388.6732" y="-15.4" font-family="sans-serif" font-size="14.00" fill="#000000"> &#160;Providers</text>
<polygon fill="#fb8072" stroke="transparent" points="461,-10 461,-30 481,-30 481,-10 461,-10"/>
<text text-anchor="start" x="484.7258" y="-15.4" font-family="sans-serif" font-size="14.00" fill="#000000"> &#160;Exports</text>
<g id="clust1" class="cluster">
<title>cluster_AgendamentosModule</title>
<polygon fill="none" stroke="#000000" stroke-dasharray="1,5" points="8,-70 8,-195 598,-195 598,-70 8,-70"/>
</g>
<g id="clust2" class="cluster">
<title>cluster_AgendamentosModule_declarations</title>
<polygon fill="none" stroke="#000000" points="138,-78 138,-130 590,-130 590,-78 138,-78"/>
</g>
<g id="clust5" class="cluster">
<title>cluster_AgendamentosModule_imports</title>
<polygon fill="none" stroke="#000000" points="16,-78 16,-130 130,-130 130,-78 16,-78"/>
</g>
<!-- AgendamentoCadastroComponent -->
<g id="node1" class="node">
<title>AgendamentoCadastroComponent</title>
<polygon fill="#ffffb3" stroke="#000000" points="581.6259,-122 372.3741,-122 372.3741,-86 581.6259,-86 581.6259,-122"/>
<text text-anchor="middle" x="477" y="-99.8" font-family="Times,serif" font-size="14.00" fill="#000000">AgendamentoCadastroComponent</text>
</g>
<!-- AgendamentosModule -->
<g id="node3" class="node">
<title>AgendamentosModule</title>
<polygon fill="#8dd3c7" stroke="#000000" points="321.5268,-187 318.5268,-191 297.5268,-191 294.5268,-187 178.4732,-187 178.4732,-151 321.5268,-151 321.5268,-187"/>
<text text-anchor="middle" x="250" y="-164.8" font-family="Times,serif" font-size="14.00" fill="#000000">AgendamentosModule</text>
</g>
<!-- AgendamentoCadastroComponent&#45;&gt;AgendamentosModule -->
<g id="edge1" class="edge">
<title>AgendamentoCadastroComponent&#45;&gt;AgendamentosModule</title>
<path fill="none" stroke="#000000" d="M477,-122.1061C477,-141.3391 477,-169 477,-169 477,-169 331.8242,-169 331.8242,-169"/>
<polygon fill="#000000" stroke="#000000" points="331.8243,-165.5001 321.8242,-169 331.8242,-172.5001 331.8243,-165.5001"/>
</g>
<!-- AgendamentoPesquisaComponent -->
<g id="node2" class="node">
<title>AgendamentoPesquisaComponent</title>
<polygon fill="#ffffb3" stroke="#000000" points="354.3556,-122 145.6444,-122 145.6444,-86 354.3556,-86 354.3556,-122"/>
<text text-anchor="middle" x="250" y="-99.8" font-family="Times,serif" font-size="14.00" fill="#000000">AgendamentoPesquisaComponent</text>
</g>
<!-- AgendamentoPesquisaComponent&#45;&gt;AgendamentosModule -->
<g id="edge2" class="edge">
<title>AgendamentoPesquisaComponent&#45;&gt;AgendamentosModule</title>
<path fill="none" stroke="#000000" d="M250,-122.1061C250,-122.1061 250,-140.991 250,-140.991"/>
<polygon fill="#000000" stroke="#000000" points="246.5001,-140.9909 250,-150.991 253.5001,-140.991 246.5001,-140.9909"/>
</g>
<!-- SharedModule -->
<g id="node4" class="node">
<title>SharedModule</title>
<polygon fill="#8dd3c7" stroke="#000000" points="122.4231,-122 119.4231,-126 98.4231,-126 95.4231,-122 23.5769,-122 23.5769,-86 122.4231,-86 122.4231,-122"/>
<text text-anchor="middle" x="73" y="-99.8" font-family="Times,serif" font-size="14.00" fill="#000000">SharedModule</text>
</g>
<!-- SharedModule&#45;&gt;AgendamentosModule -->
<g id="edge3" class="edge">
<title>SharedModule&#45;&gt;AgendamentosModule</title>
<path fill="none" stroke="#000000" d="M73,-122.1061C73,-141.3391 73,-169 73,-169 73,-169 168.2625,-169 168.2625,-169"/>
<polygon fill="#000000" stroke="#000000" points="168.2625,-172.5001 178.2625,-169 168.2625,-165.5001 168.2625,-172.5001"/>
</g>
</g>
</svg>
