<?xml version="1.0" encoding="UTF-8" standalone="no"?>
<!DOCTYPE svg PUBLIC "-//W3C//DTD SVG 1.1//EN"
 "http://www.w3.org/Graphics/SVG/1.1/DTD/svg11.dtd">
<!-- Generated by graphviz version 2.40.1 (20161225.0304)
 -->
<!-- Title: dependencies Pages: 1 -->
<svg width="738pt" height="211pt"
 viewBox="0.00 0.00 738.00 211.00" xmlns="http://www.w3.org/2000/svg" xmlns:xlink="http://www.w3.org/1999/xlink">
<g id="graph0" class="graph" transform="scale(1 1) rotate(0) translate(4 207)">
<title>dependencies</title>
<polygon fill="#ffffff" stroke="transparent" points="-4,4 -4,-207 734,-207 734,4 -4,4"/>
<text text-anchor="start" x="344.0091" y="-42.4" font-family="sans-serif" font-weight="bold" font-size="14.00" fill="#000000">Legend</text>
<polygon fill="#ffffb3" stroke="transparent" points="131,-10 131,-30 151,-30 151,-10 131,-10"/>
<text text-anchor="start" x="154.629" y="-15.4" font-family="sans-serif" font-size="14.00" fill="#000000"> &#160;Declarations</text>
<polygon fill="#8dd3c7" stroke="transparent" points="244,-10 244,-30 264,-30 264,-10 244,-10"/>
<text text-anchor="start" x="267.7251" y="-15.4" font-family="sans-serif" font-size="14.00" fill="#000000"> &#160;Module</text>
<polygon fill="#80b1d3" stroke="transparent" points="330,-10 330,-30 350,-30 350,-10 330,-10"/>
<text text-anchor="start" x="353.7812" y="-15.4" font-family="sans-serif" font-size="14.00" fill="#000000"> &#160;Bootstrap</text>
<polygon fill="#fdb462" stroke="transparent" points="427,-10 427,-30 447,-30 447,-10 427,-10"/>
<text text-anchor="start" x="450.6732" y="-15.4" font-family="sans-serif" font-size="14.00" fill="#000000"> &#160;Providers</text>
<polygon fill="#fb8072" stroke="transparent" points="523,-10 523,-30 543,-30 543,-10 523,-10"/>
<text text-anchor="start" x="546.7258" y="-15.4" font-family="sans-serif" font-size="14.00" fill="#000000"> &#160;Exports</text>
<g id="clust1" class="cluster">
<title>cluster_MaterialModule</title>
<polygon fill="none" stroke="#000000" stroke-dasharray="1,5" points="8,-70 8,-195 722,-195 722,-70 8,-70"/>
</g>
<g id="clust2" class="cluster">
<title>cluster_MaterialModule_declarations</title>
<polygon fill="none" stroke="#000000" points="138,-78 138,-130 714,-130 714,-78 138,-78"/>
</g>
<g id="clust6" class="cluster">
<title>cluster_MaterialModule_imports</title>
<polygon fill="none" stroke="#000000" points="16,-78 16,-130 130,-130 130,-78 16,-78"/>
</g>
<!-- MateriaisListaComponent -->
<g id="node1" class="node">
<title>MateriaisListaComponent</title>
<polygon fill="#ffffb3" stroke="#000000" points="706.1909,-122 543.8091,-122 543.8091,-86 706.1909,-86 706.1909,-122"/>
<text text-anchor="middle" x="625" y="-99.8" font-family="Times,serif" font-size="14.00" fill="#000000">MateriaisListaComponent</text>
</g>
<!-- MaterialModule -->
<g id="node4" class="node">
<title>MaterialModule</title>
<polygon fill="#8dd3c7" stroke="#000000" points="387.4706,-187 384.4706,-191 363.4706,-191 360.4706,-187 280.5294,-187 280.5294,-151 387.4706,-151 387.4706,-187"/>
<text text-anchor="middle" x="334" y="-164.8" font-family="Times,serif" font-size="14.00" fill="#000000">MaterialModule</text>
</g>
<!-- MateriaisListaComponent&#45;&gt;MaterialModule -->
<g id="edge1" class="edge">
<title>MateriaisListaComponent&#45;&gt;MaterialModule</title>
<path fill="none" stroke="#000000" d="M625,-122.1061C625,-141.3391 625,-169 625,-169 625,-169 397.713,-169 397.713,-169"/>
<polygon fill="#000000" stroke="#000000" points="397.713,-165.5001 387.713,-169 397.713,-172.5001 397.713,-165.5001"/>
</g>
<!-- MateriaisPesquisaComponent -->
<g id="node2" class="node">
<title>MateriaisPesquisaComponent</title>
<polygon fill="#ffffb3" stroke="#000000" points="525.6895,-122 342.3105,-122 342.3105,-86 525.6895,-86 525.6895,-122"/>
<text text-anchor="middle" x="434" y="-99.8" font-family="Times,serif" font-size="14.00" fill="#000000">MateriaisPesquisaComponent</text>
</g>
<!-- MateriaisPesquisaComponent&#45;&gt;MaterialModule -->
<g id="edge2" class="edge">
<title>MateriaisPesquisaComponent&#45;&gt;MaterialModule</title>
<path fill="none" stroke="#000000" d="M364.9453,-122.1061C364.9453,-122.1061 364.9453,-140.991 364.9453,-140.991"/>
<polygon fill="#000000" stroke="#000000" points="361.4454,-140.9909 364.9453,-150.991 368.4454,-140.991 361.4454,-140.9909"/>
</g>
<!-- MaterialCadastroComponent -->
<g id="node3" class="node">
<title>MaterialCadastroComponent</title>
<polygon fill="#ffffb3" stroke="#000000" points="324.0155,-122 145.9845,-122 145.9845,-86 324.0155,-86 324.0155,-122"/>
<text text-anchor="middle" x="235" y="-99.8" font-family="Times,serif" font-size="14.00" fill="#000000">MaterialCadastroComponent</text>
</g>
<!-- MaterialCadastroComponent&#45;&gt;MaterialModule -->
<g id="edge3" class="edge">
<title>MaterialCadastroComponent&#45;&gt;MaterialModule</title>
<path fill="none" stroke="#000000" d="M302.386,-122.1061C302.386,-122.1061 302.386,-140.991 302.386,-140.991"/>
<polygon fill="#000000" stroke="#000000" points="298.8861,-140.9909 302.386,-150.991 305.8861,-140.991 298.8861,-140.9909"/>
</g>
<!-- SharedModule -->
<g id="node5" class="node">
<title>SharedModule</title>
<polygon fill="#8dd3c7" stroke="#000000" points="122.4231,-122 119.4231,-126 98.4231,-126 95.4231,-122 23.5769,-122 23.5769,-86 122.4231,-86 122.4231,-122"/>
<text text-anchor="middle" x="73" y="-99.8" font-family="Times,serif" font-size="14.00" fill="#000000">SharedModule</text>
</g>
<!-- SharedModule&#45;&gt;MaterialModule -->
<g id="edge4" class="edge">
<title>SharedModule&#45;&gt;MaterialModule</title>
<path fill="none" stroke="#000000" d="M73,-122.1061C73,-141.3391 73,-169 73,-169 73,-169 270.2371,-169 270.2371,-169"/>
<polygon fill="#000000" stroke="#000000" points="270.2371,-172.5001 280.2371,-169 270.2371,-165.5001 270.2371,-172.5001"/>
</g>
</g>
</svg>
