<?xml version="1.0" encoding="UTF-8" standalone="no"?>
<!DOCTYPE svg PUBLIC "-//W3C//DTD SVG 1.1//EN"
 "http://www.w3.org/Graphics/SVG/1.1/DTD/svg11.dtd">
<!-- Generated by graphviz version 2.40.1 (20161225.0304)
 -->
<!-- Title: dependencies Pages: 1 -->
<svg width="1580pt" height="284pt"
 viewBox="0.00 0.00 1580.00 284.00" xmlns="http://www.w3.org/2000/svg" xmlns:xlink="http://www.w3.org/1999/xlink">
<g id="graph0" class="graph" transform="scale(1 1) rotate(0) translate(4 280)">
<title>dependencies</title>
<polygon fill="#ffffff" stroke="transparent" points="-4,4 -4,-280 1576,-280 1576,4 -4,4"/>
<text text-anchor="start" x="765.0091" y="-42.4" font-family="sans-serif" font-weight="bold" font-size="14.00" fill="#000000">Legend</text>
<polygon fill="#ffffb3" stroke="transparent" points="552,-10 552,-30 572,-30 572,-10 552,-10"/>
<text text-anchor="start" x="575.629" y="-15.4" font-family="sans-serif" font-size="14.00" fill="#000000"> &#160;Declarations</text>
<polygon fill="#8dd3c7" stroke="transparent" points="665,-10 665,-30 685,-30 685,-10 665,-10"/>
<text text-anchor="start" x="688.7251" y="-15.4" font-family="sans-serif" font-size="14.00" fill="#000000"> &#160;Module</text>
<polygon fill="#80b1d3" stroke="transparent" points="751,-10 751,-30 771,-30 771,-10 751,-10"/>
<text text-anchor="start" x="774.7812" y="-15.4" font-family="sans-serif" font-size="14.00" fill="#000000"> &#160;Bootstrap</text>
<polygon fill="#fdb462" stroke="transparent" points="848,-10 848,-30 868,-30 868,-10 848,-10"/>
<text text-anchor="start" x="871.6732" y="-15.4" font-family="sans-serif" font-size="14.00" fill="#000000"> &#160;Providers</text>
<polygon fill="#fb8072" stroke="transparent" points="944,-10 944,-30 964,-30 964,-10 944,-10"/>
<text text-anchor="start" x="967.7258" y="-15.4" font-family="sans-serif" font-size="14.00" fill="#000000"> &#160;Exports</text>
<g id="clust1" class="cluster">
<title>cluster_SharedModule</title>
<polygon fill="none" stroke="#000000" stroke-dasharray="1,5" points="8,-70 8,-268 1564,-268 1564,-70 8,-70"/>
</g>
<g id="clust2" class="cluster">
<title>cluster_SharedModule_declarations</title>
<polygon fill="none" stroke="#000000" points="36,-78 36,-130 1543,-130 1543,-78 36,-78"/>
</g>
<g id="clust14" class="cluster">
<title>cluster_SharedModule_exports</title>
<polygon fill="none" stroke="#000000" points="16,-208 16,-260 1556,-260 1556,-208 16,-208"/>
</g>
<!-- ButtonComponent -->
<g id="node1" class="node">
<title>ButtonComponent</title>
<polygon fill="#ffffb3" stroke="#000000" points="1534.9511,-122 1415.0489,-122 1415.0489,-86 1534.9511,-86 1534.9511,-122"/>
<text text-anchor="middle" x="1475" y="-99.8" font-family="Times,serif" font-size="14.00" fill="#000000">ButtonComponent</text>
</g>
<!-- SharedModule -->
<g id="node11" class="node">
<title>SharedModule</title>
<polygon fill="#8dd3c7" stroke="#000000" points="738.4231,-187 735.4231,-191 714.4231,-191 711.4231,-187 639.5769,-187 639.5769,-151 738.4231,-151 738.4231,-187"/>
<text text-anchor="middle" x="689" y="-164.8" font-family="Times,serif" font-size="14.00" fill="#000000">SharedModule</text>
</g>
<!-- ButtonComponent&#45;&gt;SharedModule -->
<g id="edge1" class="edge">
<title>ButtonComponent&#45;&gt;SharedModule</title>
<path fill="none" stroke="#000000" d="M1420.3999,-122.1686C1420.3999,-141.0898 1420.3999,-168 1420.3999,-168 1420.3999,-168 748.4106,-168 748.4106,-168"/>
<polygon fill="#000000" stroke="#000000" points="748.4107,-164.5001 738.4106,-168 748.4106,-171.5001 748.4107,-164.5001"/>
</g>
<!-- CalendarOptionsComponent -->
<g id="node2" class="node">
<title>CalendarOptionsComponent</title>
<polygon fill="#ffffb3" stroke="#000000" points="1397.1965,-122 1220.8035,-122 1220.8035,-86 1397.1965,-86 1397.1965,-122"/>
<text text-anchor="middle" x="1309" y="-99.8" font-family="Times,serif" font-size="14.00" fill="#000000">CalendarOptionsComponent</text>
</g>
<!-- CalendarOptionsComponent&#45;&gt;SharedModule -->
<g id="edge2" class="edge">
<title>CalendarOptionsComponent&#45;&gt;SharedModule</title>
<path fill="none" stroke="#000000" d="M1224.5268,-122.302C1224.5268,-140.2699 1224.5268,-165 1224.5268,-165 1224.5268,-165 748.4212,-165 748.4212,-165"/>
<polygon fill="#000000" stroke="#000000" points="748.4212,-161.5001 738.4212,-165 748.4211,-168.5001 748.4212,-161.5001"/>
</g>
<!-- DefaultHeaderComponent -->
<g id="node3" class="node">
<title>DefaultHeaderComponent</title>
<polygon fill="#ffffb3" stroke="#000000" points="1202.7212,-122 1039.2788,-122 1039.2788,-86 1202.7212,-86 1202.7212,-122"/>
<text text-anchor="middle" x="1121" y="-99.8" font-family="Times,serif" font-size="14.00" fill="#000000">DefaultHeaderComponent</text>
</g>
<!-- DefaultHeaderComponent&#45;&gt;SharedModule -->
<g id="edge3" class="edge">
<title>DefaultHeaderComponent&#45;&gt;SharedModule</title>
<path fill="none" stroke="#000000" d="M1149.7035,-122.0352C1149.7035,-138.7344 1149.7035,-161 1149.7035,-161 1149.7035,-161 748.3033,-161 748.3033,-161"/>
<polygon fill="#000000" stroke="#000000" points="748.3034,-157.5001 738.3033,-161 748.3033,-164.5001 748.3034,-157.5001"/>
</g>
<!-- FormaRostoPipe -->
<g id="node4" class="node">
<title>FormaRostoPipe</title>
<polygon fill="#ffffb3" stroke="#000000" points="1021.1081,-122 910.8919,-122 910.8919,-86 1021.1081,-86 1021.1081,-122"/>
<text text-anchor="middle" x="966" y="-99.8" font-family="Times,serif" font-size="14.00" fill="#000000">FormaRostoPipe</text>
</g>
<!-- FormaRostoPipe&#45;&gt;SharedModule -->
<g id="edge4" class="edge">
<title>FormaRostoPipe&#45;&gt;SharedModule</title>
<path fill="none" stroke="#000000" d="M984.768,-122.2819C984.768,-137.9478 984.768,-158 984.768,-158 984.768,-158 748.5049,-158 748.5049,-158"/>
<polygon fill="#000000" stroke="#000000" points="748.5049,-154.5001 738.5049,-158 748.5049,-161.5001 748.5049,-154.5001"/>
</g>
<!-- InputComponent -->
<g id="node5" class="node">
<title>InputComponent</title>
<polygon fill="#ffffb3" stroke="#000000" points="893.3837,-122 782.6163,-122 782.6163,-86 893.3837,-86 893.3837,-122"/>
<text text-anchor="middle" x="838" y="-99.8" font-family="Times,serif" font-size="14.00" fill="#000000">InputComponent</text>
</g>
<!-- InputComponent&#45;&gt;SharedModule -->
<g id="edge5" class="edge">
<title>InputComponent&#45;&gt;SharedModule</title>
<path fill="none" stroke="#000000" d="M819.5194,-122.1243C819.5194,-136.7832 819.5194,-155 819.5194,-155 819.5194,-155 748.3438,-155 748.3438,-155"/>
<polygon fill="#000000" stroke="#000000" points="748.3438,-151.5001 738.3438,-155 748.3438,-158.5001 748.3438,-151.5001"/>
</g>
<!-- InputContainerComponent -->
<g id="node6" class="node">
<title>InputContainerComponent</title>
<polygon fill="#ffffb3" stroke="#000000" points="765.0912,-122 598.9088,-122 598.9088,-86 765.0912,-86 765.0912,-122"/>
<text text-anchor="middle" x="682" y="-99.8" font-family="Times,serif" font-size="14.00" fill="#000000">InputContainerComponent</text>
</g>
<!-- InputContainerComponent&#45;&gt;SharedModule -->
<g id="edge6" class="edge">
<title>InputContainerComponent&#45;&gt;SharedModule</title>
<path fill="none" stroke="#000000" d="M689,-122.1061C689,-122.1061 689,-140.991 689,-140.991"/>
<polygon fill="#000000" stroke="#000000" points="685.5001,-140.9909 689,-150.991 692.5001,-140.991 685.5001,-140.9909"/>
</g>
<!-- OdontogramaSelectComponent -->
<g id="node7" class="node">
<title>OdontogramaSelectComponent</title>
<polygon fill="#ffffb3" stroke="#000000" points="581.0182,-122 388.9818,-122 388.9818,-86 581.0182,-86 581.0182,-122"/>
<text text-anchor="middle" x="485" y="-99.8" font-family="Times,serif" font-size="14.00" fill="#000000">OdontogramaSelectComponent</text>
</g>
<!-- OdontogramaSelectComponent&#45;&gt;SharedModule -->
<g id="edge7" class="edge">
<title>OdontogramaSelectComponent&#45;&gt;SharedModule</title>
<path fill="none" stroke="#000000" d="M577.6338,-122.1243C577.6338,-136.7832 577.6338,-155 577.6338,-155 577.6338,-155 629.5046,-155 629.5046,-155"/>
<polygon fill="#000000" stroke="#000000" points="629.5046,-158.5001 639.5046,-155 629.5046,-151.5001 629.5046,-158.5001"/>
</g>
<!-- RadioComponent -->
<g id="node8" class="node">
<title>RadioComponent</title>
<polygon fill="#ffffb3" stroke="#000000" points="370.2744,-122 255.7256,-122 255.7256,-86 370.2744,-86 370.2744,-122"/>
<text text-anchor="middle" x="313" y="-99.8" font-family="Times,serif" font-size="14.00" fill="#000000">RadioComponent</text>
</g>
<!-- RadioComponent&#45;&gt;SharedModule -->
<g id="edge8" class="edge">
<title>RadioComponent&#45;&gt;SharedModule</title>
<path fill="none" stroke="#000000" d="M365.2621,-122.0091C365.2621,-138.0494 365.2621,-159 365.2621,-159 365.2621,-159 629.4788,-159 629.4788,-159"/>
<polygon fill="#000000" stroke="#000000" points="629.4788,-162.5001 639.4788,-159 629.4787,-155.5001 629.4788,-162.5001"/>
</g>
<!-- ShortenPipe -->
<g id="node9" class="node">
<title>ShortenPipe</title>
<polygon fill="#ffffb3" stroke="#000000" points="237.4373,-122 152.5627,-122 152.5627,-86 237.4373,-86 237.4373,-122"/>
<text text-anchor="middle" x="195" y="-99.8" font-family="Times,serif" font-size="14.00" fill="#000000">ShortenPipe</text>
</g>
<!-- ShortenPipe&#45;&gt;SharedModule -->
<g id="edge9" class="edge">
<title>ShortenPipe&#45;&gt;SharedModule</title>
<path fill="none" stroke="#000000" d="M230.5931,-122.0225C230.5931,-139.3734 230.5931,-163 230.5931,-163 230.5931,-163 629.5069,-163 629.5069,-163"/>
<polygon fill="#000000" stroke="#000000" points="629.5069,-166.5001 639.5069,-163 629.5069,-159.5001 629.5069,-166.5001"/>
</g>
<!-- TelefonePipe -->
<g id="node10" class="node">
<title>TelefonePipe</title>
<polygon fill="#ffffb3" stroke="#000000" points="134.1361,-122 43.8639,-122 43.8639,-86 134.1361,-86 134.1361,-122"/>
<text text-anchor="middle" x="89" y="-99.8" font-family="Times,serif" font-size="14.00" fill="#000000">TelefonePipe</text>
</g>
<!-- TelefonePipe&#45;&gt;SharedModule -->
<g id="edge10" class="edge">
<title>TelefonePipe&#45;&gt;SharedModule</title>
<path fill="none" stroke="#000000" d="M126.1927,-122.2222C126.1927,-140.8285 126.1927,-167 126.1927,-167 126.1927,-167 629.5479,-167 629.5479,-167"/>
<polygon fill="#000000" stroke="#000000" points="629.5479,-170.5001 639.5479,-167 629.5478,-163.5001 629.5479,-170.5001"/>
</g>
<!-- ButtonComponent  -->
<g id="node12" class="node">
<title>ButtonComponent </title>
<polygon fill="#fb8072" stroke="#000000" points="1548.4502,-252 1425.5498,-252 1425.5498,-216 1548.4502,-216 1548.4502,-252"/>
<text text-anchor="middle" x="1487" y="-229.8" font-family="Times,serif" font-size="14.00" fill="#000000">ButtonComponent </text>
</g>
<!-- SharedModule&#45;&gt;ButtonComponent  -->
<g id="edge11" class="edge">
<title>SharedModule&#45;&gt;ButtonComponent </title>
<path fill="none" stroke="#000000" stroke-dasharray="5,2" d="M738.4884,-171C911.685,-171 1480.125,-171 1480.125,-171 1480.125,-171 1480.125,-205.7778 1480.125,-205.7778"/>
<polygon fill="#000000" stroke="#000000" points="1476.6251,-205.7778 1480.125,-215.7778 1483.6251,-205.7778 1476.6251,-205.7778"/>
</g>
<!-- CalendarOptionsComponent  -->
<g id="node13" class="node">
<title>CalendarOptionsComponent </title>
<polygon fill="#fb8072" stroke="#000000" points="1407.6967,-252 1228.3033,-252 1228.3033,-216 1407.6967,-216 1407.6967,-252"/>
<text text-anchor="middle" x="1318" y="-229.8" font-family="Times,serif" font-size="14.00" fill="#000000">CalendarOptionsComponent </text>
</g>
<!-- SharedModule&#45;&gt;CalendarOptionsComponent  -->
<g id="edge12" class="edge">
<title>SharedModule&#45;&gt;CalendarOptionsComponent </title>
<path fill="none" stroke="#000000" stroke-dasharray="5,2" d="M738.4561,-174C885.9567,-174 1312.625,-174 1312.625,-174 1312.625,-174 1312.625,-205.998 1312.625,-205.998"/>
<polygon fill="#000000" stroke="#000000" points="1309.1251,-205.998 1312.625,-215.998 1316.1251,-205.9981 1309.1251,-205.998"/>
</g>
<!-- DefaultHeaderComponent  -->
<g id="node14" class="node">
<title>DefaultHeaderComponent </title>
<polygon fill="#fb8072" stroke="#000000" points="1210.7211,-252 1043.2789,-252 1043.2789,-216 1210.7211,-216 1210.7211,-252"/>
<text text-anchor="middle" x="1127" y="-229.8" font-family="Times,serif" font-size="14.00" fill="#000000">DefaultHeaderComponent </text>
</g>
<!-- SharedModule&#45;&gt;DefaultHeaderComponent  -->
<g id="edge13" class="edge">
<title>SharedModule&#45;&gt;DefaultHeaderComponent </title>
<path fill="none" stroke="#000000" stroke-dasharray="5,2" d="M738.5658,-178C847.1776,-178 1096.5465,-178 1096.5465,-178 1096.5465,-178 1096.5465,-205.973 1096.5465,-205.973"/>
<polygon fill="#000000" stroke="#000000" points="1093.0466,-205.973 1096.5465,-215.973 1100.0466,-205.973 1093.0466,-205.973"/>
</g>
<!-- FormaRostoPipe  -->
<g id="node15" class="node">
<title>FormaRostoPipe </title>
<polygon fill="#fb8072" stroke="#000000" points="1025.6087,-252 912.3913,-252 912.3913,-216 1025.6087,-216 1025.6087,-252"/>
<text text-anchor="middle" x="969" y="-229.8" font-family="Times,serif" font-size="14.00" fill="#000000">FormaRostoPipe </text>
</g>
<!-- SharedModule&#45;&gt;FormaRostoPipe  -->
<g id="edge14" class="edge">
<title>SharedModule&#45;&gt;FormaRostoPipe </title>
<path fill="none" stroke="#000000" stroke-dasharray="5,2" d="M738.4173,-181C813.7037,-181 948.482,-181 948.482,-181 948.482,-181 948.482,-205.7604 948.482,-205.7604"/>
<polygon fill="#000000" stroke="#000000" points="944.9821,-205.7604 948.482,-215.7604 951.9821,-205.7604 944.9821,-205.7604"/>
</g>
<!-- InputComponent  -->
<g id="node16" class="node">
<title>InputComponent </title>
<polygon fill="#fb8072" stroke="#000000" points="894.3842,-252 779.6158,-252 779.6158,-216 894.3842,-216 894.3842,-252"/>
<text text-anchor="middle" x="837" y="-229.8" font-family="Times,serif" font-size="14.00" fill="#000000">InputComponent </text>
</g>
<!-- SharedModule&#45;&gt;InputComponent  -->
<g id="edge15" class="edge">
<title>SharedModule&#45;&gt;InputComponent </title>
<path fill="none" stroke="#000000" stroke-dasharray="5,2" d="M738.3439,-184C787.7465,-184 856.4806,-184 856.4806,-184 856.4806,-184 856.4806,-205.9489 856.4806,-205.9489"/>
<polygon fill="#000000" stroke="#000000" points="852.9807,-205.9488 856.4806,-215.9489 859.9807,-205.9489 852.9807,-205.9488"/>
</g>
<!-- InputContainerComponent  -->
<g id="node17" class="node">
<title>InputContainerComponent </title>
<polygon fill="#fb8072" stroke="#000000" points="761.5917,-252 592.4083,-252 592.4083,-216 761.5917,-216 761.5917,-252"/>
<text text-anchor="middle" x="677" y="-229.8" font-family="Times,serif" font-size="14.00" fill="#000000">InputContainerComponent </text>
</g>
<!-- SharedModule&#45;&gt;InputContainerComponent  -->
<g id="edge16" class="edge">
<title>SharedModule&#45;&gt;InputContainerComponent </title>
<path fill="none" stroke="#000000" stroke-dasharray="5,2" d="M689,-187.1061C689,-187.1061 689,-205.991 689,-205.991"/>
<polygon fill="#000000" stroke="#000000" points="685.5001,-205.9909 689,-215.991 692.5001,-205.991 685.5001,-205.9909"/>
</g>
<!-- OdontogramaSelectComponent  -->
<g id="node18" class="node">
<title>OdontogramaSelectComponent </title>
<polygon fill="#fb8072" stroke="#000000" points="574.0176,-252 377.9824,-252 377.9824,-216 574.0176,-216 574.0176,-252"/>
<text text-anchor="middle" x="476" y="-229.8" font-family="Times,serif" font-size="14.00" fill="#000000">OdontogramaSelectComponent </text>
</g>
<!-- SharedModule&#45;&gt;OdontogramaSelectComponent  -->
<g id="edge17" class="edge">
<title>SharedModule&#45;&gt;OdontogramaSelectComponent </title>
<path fill="none" stroke="#000000" stroke-dasharray="5,2" d="M639.5324,-183C578.1212,-183 481.375,-183 481.375,-183 481.375,-183 481.375,-205.8757 481.375,-205.8757"/>
<polygon fill="#000000" stroke="#000000" points="477.8751,-205.8757 481.375,-215.8757 484.8751,-205.8757 477.8751,-205.8757"/>
</g>
<!-- RadioComponent  -->
<g id="node19" class="node">
<title>RadioComponent </title>
<polygon fill="#fb8072" stroke="#000000" points="360.2745,-252 241.7255,-252 241.7255,-216 360.2745,-216 360.2745,-252"/>
<text text-anchor="middle" x="301" y="-229.8" font-family="Times,serif" font-size="14.00" fill="#000000">RadioComponent </text>
</g>
<!-- SharedModule&#45;&gt;RadioComponent  -->
<g id="edge18" class="edge">
<title>SharedModule&#45;&gt;RadioComponent </title>
<path fill="none" stroke="#000000" stroke-dasharray="5,2" d="M639.5653,-179C536.4422,-179 307.875,-179 307.875,-179 307.875,-179 307.875,-205.9909 307.875,-205.9909"/>
<polygon fill="#000000" stroke="#000000" points="304.3751,-205.9909 307.875,-215.9909 311.3751,-205.991 304.3751,-205.9909"/>
</g>
<!-- ShortenPipe  -->
<g id="node20" class="node">
<title>ShortenPipe </title>
<polygon fill="#fb8072" stroke="#000000" points="223.9362,-252 136.0638,-252 136.0638,-216 223.9362,-216 223.9362,-252"/>
<text text-anchor="middle" x="180" y="-229.8" font-family="Times,serif" font-size="14.00" fill="#000000">ShortenPipe </text>
</g>
<!-- SharedModule&#45;&gt;ShortenPipe  -->
<g id="edge19" class="edge">
<title>SharedModule&#45;&gt;ShortenPipe </title>
<path fill="none" stroke="#000000" stroke-dasharray="5,2" d="M639.6281,-175C513.328,-175 188.375,-175 188.375,-175 188.375,-175 188.375,-205.9775 188.375,-205.9775"/>
<polygon fill="#000000" stroke="#000000" points="184.8751,-205.9774 188.375,-215.9775 191.8751,-205.9775 184.8751,-205.9774"/>
</g>
<!-- TelefonePipe  -->
<g id="node21" class="node">
<title>TelefonePipe </title>
<polygon fill="#fb8072" stroke="#000000" points="118.1355,-252 23.8645,-252 23.8645,-216 118.1355,-216 118.1355,-252"/>
<text text-anchor="middle" x="71" y="-229.8" font-family="Times,serif" font-size="14.00" fill="#000000">TelefonePipe </text>
</g>
<!-- SharedModule&#45;&gt;TelefonePipe  -->
<g id="edge20" class="edge">
<title>SharedModule&#45;&gt;TelefonePipe </title>
<path fill="none" stroke="#000000" stroke-dasharray="5,2" d="M639.7497,-171C494.9761,-171 80.875,-171 80.875,-171 80.875,-171 80.875,-205.7778 80.875,-205.7778"/>
<polygon fill="#000000" stroke="#000000" points="77.3751,-205.7778 80.875,-215.7778 84.3751,-205.7778 77.3751,-205.7778"/>
</g>
</g>
</svg>
