<?xml version="1.0" encoding="UTF-8" standalone="no"?>
<!DOCTYPE svg PUBLIC "-//W3C//DTD SVG 1.1//EN"
 "http://www.w3.org/Graphics/SVG/1.1/DTD/svg11.dtd">
<!-- Generated by graphviz version 2.40.1 (20161225.0304)
 -->
<!-- Title: dependencies Pages: 1 -->
<svg width="504pt" height="211pt"
 viewBox="0.00 0.00 504.00 211.00" xmlns="http://www.w3.org/2000/svg" xmlns:xlink="http://www.w3.org/1999/xlink">
<g id="graph0" class="graph" transform="scale(1 1) rotate(0) translate(4 207)">
<title>dependencies</title>
<polygon fill="#ffffff" stroke="transparent" points="-4,4 -4,-207 500,-207 500,4 -4,4"/>
<text text-anchor="start" x="227.0091" y="-42.4" font-family="sans-serif" font-weight="bold" font-size="14.00" fill="#000000">Legend</text>
<polygon fill="#ffffb3" stroke="transparent" points="14,-10 14,-30 34,-30 34,-10 14,-10"/>
<text text-anchor="start" x="37.629" y="-15.4" font-family="sans-serif" font-size="14.00" fill="#000000"> &#160;Declarations</text>
<polygon fill="#8dd3c7" stroke="transparent" points="127,-10 127,-30 147,-30 147,-10 127,-10"/>
<text text-anchor="start" x="150.7251" y="-15.4" font-family="sans-serif" font-size="14.00" fill="#000000"> &#160;Module</text>
<polygon fill="#80b1d3" stroke="transparent" points="213,-10 213,-30 233,-30 233,-10 213,-10"/>
<text text-anchor="start" x="236.7812" y="-15.4" font-family="sans-serif" font-size="14.00" fill="#000000"> &#160;Bootstrap</text>
<polygon fill="#fdb462" stroke="transparent" points="310,-10 310,-30 330,-30 330,-10 310,-10"/>
<text text-anchor="start" x="333.6732" y="-15.4" font-family="sans-serif" font-size="14.00" fill="#000000"> &#160;Providers</text>
<polygon fill="#fb8072" stroke="transparent" points="406,-10 406,-30 426,-30 426,-10 406,-10"/>
<text text-anchor="start" x="429.7258" y="-15.4" font-family="sans-serif" font-size="14.00" fill="#000000"> &#160;Exports</text>
<g id="clust1" class="cluster">
<title>cluster_OrcamentosModule</title>
<polygon fill="none" stroke="#000000" stroke-dasharray="1,5" points="74,-70 74,-195 422,-195 422,-70 74,-70"/>
</g>
<g id="clust2" class="cluster">
<title>cluster_OrcamentosModule_declarations</title>
<polygon fill="none" stroke="#000000" points="204,-78 204,-130 414,-130 414,-78 204,-78"/>
</g>
<g id="clust4" class="cluster">
<title>cluster_OrcamentosModule_imports</title>
<polygon fill="none" stroke="#000000" points="82,-78 82,-130 196,-130 196,-78 82,-78"/>
</g>
<!-- OrcamentoCadastroComponent -->
<g id="node1" class="node">
<title>OrcamentoCadastroComponent</title>
<polygon fill="#ffffb3" stroke="#000000" points="405.7864,-122 212.2136,-122 212.2136,-86 405.7864,-86 405.7864,-122"/>
<text text-anchor="middle" x="309" y="-99.8" font-family="Times,serif" font-size="14.00" fill="#000000">OrcamentoCadastroComponent</text>
</g>
<!-- OrcamentosModule -->
<g id="node2" class="node">
<title>OrcamentosModule</title>
<polygon fill="#8dd3c7" stroke="#000000" points="290.6867,-187 287.6867,-191 266.6867,-191 263.6867,-187 163.3133,-187 163.3133,-151 290.6867,-151 290.6867,-187"/>
<text text-anchor="middle" x="227" y="-164.8" font-family="Times,serif" font-size="14.00" fill="#000000">OrcamentosModule</text>
</g>
<!-- OrcamentoCadastroComponent&#45;&gt;OrcamentosModule -->
<g id="edge1" class="edge">
<title>OrcamentoCadastroComponent&#45;&gt;OrcamentosModule</title>
<path fill="none" stroke="#000000" d="M251.4751,-122.1061C251.4751,-122.1061 251.4751,-140.991 251.4751,-140.991"/>
<polygon fill="#000000" stroke="#000000" points="247.9752,-140.9909 251.4751,-150.991 254.9752,-140.991 247.9752,-140.9909"/>
</g>
<!-- SharedModule -->
<g id="node3" class="node">
<title>SharedModule</title>
<polygon fill="#8dd3c7" stroke="#000000" points="188.4231,-122 185.4231,-126 164.4231,-126 161.4231,-122 89.5769,-122 89.5769,-86 188.4231,-86 188.4231,-122"/>
<text text-anchor="middle" x="139" y="-99.8" font-family="Times,serif" font-size="14.00" fill="#000000">SharedModule</text>
</g>
<!-- SharedModule&#45;&gt;OrcamentosModule -->
<g id="edge2" class="edge">
<title>SharedModule&#45;&gt;OrcamentosModule</title>
<path fill="none" stroke="#000000" d="M175.8089,-122.1061C175.8089,-122.1061 175.8089,-140.991 175.8089,-140.991"/>
<polygon fill="#000000" stroke="#000000" points="172.309,-140.9909 175.8089,-150.991 179.309,-140.991 172.309,-140.9909"/>
</g>
</g>
</svg>
