<?xml version="1.0" encoding="UTF-8" standalone="no"?>
<!DOCTYPE svg PUBLIC "-//W3C//DTD SVG 1.1//EN"
 "http://www.w3.org/Graphics/SVG/1.1/DTD/svg11.dtd">
<!-- Generated by graphviz version 2.40.1 (20161225.0304)
 -->
<!-- Title: dependencies Pages: 1 -->
<svg width="648pt" height="211pt"
 viewBox="0.00 0.00 648.00 211.00" xmlns="http://www.w3.org/2000/svg" xmlns:xlink="http://www.w3.org/1999/xlink">
<g id="graph0" class="graph" transform="scale(1 1) rotate(0) translate(4 207)">
<title>dependencies</title>
<polygon fill="#ffffff" stroke="transparent" points="-4,4 -4,-207 644,-207 644,4 -4,4"/>
<text text-anchor="start" x="299.0091" y="-42.4" font-family="sans-serif" font-weight="bold" font-size="14.00" fill="#000000">Legend</text>
<polygon fill="#ffffb3" stroke="transparent" points="86,-10 86,-30 106,-30 106,-10 86,-10"/>
<text text-anchor="start" x="109.629" y="-15.4" font-family="sans-serif" font-size="14.00" fill="#000000"> &#160;Declarations</text>
<polygon fill="#8dd3c7" stroke="transparent" points="199,-10 199,-30 219,-30 219,-10 199,-10"/>
<text text-anchor="start" x="222.7251" y="-15.4" font-family="sans-serif" font-size="14.00" fill="#000000"> &#160;Module</text>
<polygon fill="#80b1d3" stroke="transparent" points="285,-10 285,-30 305,-30 305,-10 285,-10"/>
<text text-anchor="start" x="308.7812" y="-15.4" font-family="sans-serif" font-size="14.00" fill="#000000"> &#160;Bootstrap</text>
<polygon fill="#fdb462" stroke="transparent" points="382,-10 382,-30 402,-30 402,-10 382,-10"/>
<text text-anchor="start" x="405.6732" y="-15.4" font-family="sans-serif" font-size="14.00" fill="#000000"> &#160;Providers</text>
<polygon fill="#fb8072" stroke="transparent" points="478,-10 478,-30 498,-30 498,-10 478,-10"/>
<text text-anchor="start" x="501.7258" y="-15.4" font-family="sans-serif" font-size="14.00" fill="#000000"> &#160;Exports</text>
<g id="clust1" class="cluster">
<title>cluster_DashboardModule</title>
<polygon fill="none" stroke="#000000" stroke-dasharray="1,5" points="8,-70 8,-195 632,-195 632,-70 8,-70"/>
</g>
<g id="clust2" class="cluster">
<title>cluster_DashboardModule_declarations</title>
<polygon fill="none" stroke="#000000" points="138,-78 138,-130 624,-130 624,-78 138,-78"/>
</g>
<g id="clust6" class="cluster">
<title>cluster_DashboardModule_imports</title>
<polygon fill="none" stroke="#000000" points="16,-78 16,-130 130,-130 130,-78 16,-78"/>
</g>
<!-- BadgeComponent -->
<g id="node1" class="node">
<title>BadgeComponent</title>
<polygon fill="#ffffb3" stroke="#000000" points="615.5982,-122 498.4018,-122 498.4018,-86 615.5982,-86 615.5982,-122"/>
<text text-anchor="middle" x="557" y="-99.8" font-family="Times,serif" font-size="14.00" fill="#000000">BadgeComponent</text>
</g>
<!-- DashboardModule -->
<g id="node4" class="node">
<title>DashboardModule</title>
<polygon fill="#8dd3c7" stroke="#000000" points="365.191,-187 362.191,-191 341.191,-191 338.191,-187 244.809,-187 244.809,-151 365.191,-151 365.191,-187"/>
<text text-anchor="middle" x="305" y="-164.8" font-family="Times,serif" font-size="14.00" fill="#000000">DashboardModule</text>
</g>
<!-- BadgeComponent&#45;&gt;DashboardModule -->
<g id="edge1" class="edge">
<title>BadgeComponent&#45;&gt;DashboardModule</title>
<path fill="none" stroke="#000000" d="M557,-122.1061C557,-141.3391 557,-169 557,-169 557,-169 375.3603,-169 375.3603,-169"/>
<polygon fill="#000000" stroke="#000000" points="375.3603,-165.5001 365.3603,-169 375.3602,-172.5001 375.3603,-165.5001"/>
</g>
<!-- CorStatusAgendamentoPipe -->
<g id="node2" class="node">
<title>CorStatusAgendamentoPipe</title>
<polygon fill="#ffffb3" stroke="#000000" points="480.14,-122 305.86,-122 305.86,-86 480.14,-86 480.14,-122"/>
<text text-anchor="middle" x="393" y="-99.8" font-family="Times,serif" font-size="14.00" fill="#000000">CorStatusAgendamentoPipe</text>
</g>
<!-- CorStatusAgendamentoPipe&#45;&gt;DashboardModule -->
<g id="edge2" class="edge">
<title>CorStatusAgendamentoPipe&#45;&gt;DashboardModule</title>
<path fill="none" stroke="#000000" d="M335.3878,-122.1061C335.3878,-122.1061 335.3878,-140.991 335.3878,-140.991"/>
<polygon fill="#000000" stroke="#000000" points="331.8879,-140.9909 335.3878,-150.991 338.8879,-140.991 331.8879,-140.9909"/>
</g>
<!-- DashboardComponent -->
<g id="node3" class="node">
<title>DashboardComponent</title>
<polygon fill="#ffffb3" stroke="#000000" points="287.9734,-122 146.0266,-122 146.0266,-86 287.9734,-86 287.9734,-122"/>
<text text-anchor="middle" x="217" y="-99.8" font-family="Times,serif" font-size="14.00" fill="#000000">DashboardComponent</text>
</g>
<!-- DashboardComponent&#45;&gt;DashboardModule -->
<g id="edge3" class="edge">
<title>DashboardComponent&#45;&gt;DashboardModule</title>
<path fill="none" stroke="#000000" d="M266.4457,-122.1061C266.4457,-122.1061 266.4457,-140.991 266.4457,-140.991"/>
<polygon fill="#000000" stroke="#000000" points="262.9457,-140.9909 266.4457,-150.991 269.9457,-140.991 262.9457,-140.9909"/>
</g>
<!-- SharedModule -->
<g id="node5" class="node">
<title>SharedModule</title>
<polygon fill="#8dd3c7" stroke="#000000" points="122.4231,-122 119.4231,-126 98.4231,-126 95.4231,-122 23.5769,-122 23.5769,-86 122.4231,-86 122.4231,-122"/>
<text text-anchor="middle" x="73" y="-99.8" font-family="Times,serif" font-size="14.00" fill="#000000">SharedModule</text>
</g>
<!-- SharedModule&#45;&gt;DashboardModule -->
<g id="edge4" class="edge">
<title>SharedModule&#45;&gt;DashboardModule</title>
<path fill="none" stroke="#000000" d="M73,-122.1061C73,-141.3391 73,-169 73,-169 73,-169 234.6504,-169 234.6504,-169"/>
<polygon fill="#000000" stroke="#000000" points="234.6504,-172.5001 244.6504,-169 234.6503,-165.5001 234.6504,-172.5001"/>
</g>
</g>
</svg>
