<?xml version="1.0" encoding="UTF-8" standalone="no"?>
<!DOCTYPE svg PUBLIC "-//W3C//DTD SVG 1.1//EN"
 "http://www.w3.org/Graphics/SVG/1.1/DTD/svg11.dtd">
<!-- Generated by graphviz version 2.40.1 (20161225.0304)
 -->
<!-- Title: dependencies Pages: 1 -->
<svg width="556pt" height="211pt"
 viewBox="0.00 0.00 556.00 211.00" xmlns="http://www.w3.org/2000/svg" xmlns:xlink="http://www.w3.org/1999/xlink">
<g id="graph0" class="graph" transform="scale(1 1) rotate(0) translate(4 207)">
<title>dependencies</title>
<polygon fill="#ffffff" stroke="transparent" points="-4,4 -4,-207 552,-207 552,4 -4,4"/>
<text text-anchor="start" x="253.0091" y="-42.4" font-family="sans-serif" font-weight="bold" font-size="14.00" fill="#000000">Legend</text>
<polygon fill="#ffffb3" stroke="transparent" points="40,-10 40,-30 60,-30 60,-10 40,-10"/>
<text text-anchor="start" x="63.629" y="-15.4" font-family="sans-serif" font-size="14.00" fill="#000000"> &#160;Declarations</text>
<polygon fill="#8dd3c7" stroke="transparent" points="153,-10 153,-30 173,-30 173,-10 153,-10"/>
<text text-anchor="start" x="176.7251" y="-15.4" font-family="sans-serif" font-size="14.00" fill="#000000"> &#160;Module</text>
<polygon fill="#80b1d3" stroke="transparent" points="239,-10 239,-30 259,-30 259,-10 239,-10"/>
<text text-anchor="start" x="262.7812" y="-15.4" font-family="sans-serif" font-size="14.00" fill="#000000"> &#160;Bootstrap</text>
<polygon fill="#fdb462" stroke="transparent" points="336,-10 336,-30 356,-30 356,-10 336,-10"/>
<text text-anchor="start" x="359.6732" y="-15.4" font-family="sans-serif" font-size="14.00" fill="#000000"> &#160;Providers</text>
<polygon fill="#fb8072" stroke="transparent" points="432,-10 432,-30 452,-30 452,-10 432,-10"/>
<text text-anchor="start" x="455.7258" y="-15.4" font-family="sans-serif" font-size="14.00" fill="#000000"> &#160;Exports</text>
<g id="clust1" class="cluster">
<title>cluster_DespesasModule</title>
<polygon fill="none" stroke="#000000" stroke-dasharray="1,5" points="8,-70 8,-195 540,-195 540,-70 8,-70"/>
</g>
<g id="clust2" class="cluster">
<title>cluster_DespesasModule_declarations</title>
<polygon fill="none" stroke="#000000" points="138,-78 138,-130 532,-130 532,-78 138,-78"/>
</g>
<g id="clust5" class="cluster">
<title>cluster_DespesasModule_imports</title>
<polygon fill="none" stroke="#000000" points="16,-78 16,-130 130,-130 130,-78 16,-78"/>
</g>
<!-- DespesaCadastroComponent -->
<g id="node1" class="node">
<title>DespesaCadastroComponent</title>
<polygon fill="#ffffb3" stroke="#000000" points="523.7338,-122 346.2662,-122 346.2662,-86 523.7338,-86 523.7338,-122"/>
<text text-anchor="middle" x="435" y="-99.8" font-family="Times,serif" font-size="14.00" fill="#000000">DespesaCadastroComponent</text>
</g>
<!-- DespesasModule -->
<g id="node3" class="node">
<title>DespesasModule</title>
<polygon fill="#8dd3c7" stroke="#000000" points="292.6346,-187 289.6346,-191 268.6346,-191 265.6346,-187 181.3654,-187 181.3654,-151 292.6346,-151 292.6346,-187"/>
<text text-anchor="middle" x="237" y="-164.8" font-family="Times,serif" font-size="14.00" fill="#000000">DespesasModule</text>
</g>
<!-- DespesaCadastroComponent&#45;&gt;DespesasModule -->
<g id="edge1" class="edge">
<title>DespesaCadastroComponent&#45;&gt;DespesasModule</title>
<path fill="none" stroke="#000000" d="M435,-122.1061C435,-141.3391 435,-169 435,-169 435,-169 302.681,-169 302.681,-169"/>
<polygon fill="#000000" stroke="#000000" points="302.681,-165.5001 292.681,-169 302.6809,-172.5001 302.681,-165.5001"/>
</g>
<!-- DespesasPesquisaComponent -->
<g id="node2" class="node">
<title>DespesasPesquisaComponent</title>
<polygon fill="#ffffb3" stroke="#000000" points="328.4087,-122 145.5913,-122 145.5913,-86 328.4087,-86 328.4087,-122"/>
<text text-anchor="middle" x="237" y="-99.8" font-family="Times,serif" font-size="14.00" fill="#000000">DespesasPesquisaComponent</text>
</g>
<!-- DespesasPesquisaComponent&#45;&gt;DespesasModule -->
<g id="edge2" class="edge">
<title>DespesasPesquisaComponent&#45;&gt;DespesasModule</title>
<path fill="none" stroke="#000000" d="M237,-122.1061C237,-122.1061 237,-140.991 237,-140.991"/>
<polygon fill="#000000" stroke="#000000" points="233.5001,-140.9909 237,-150.991 240.5001,-140.991 233.5001,-140.9909"/>
</g>
<!-- SharedModule -->
<g id="node4" class="node">
<title>SharedModule</title>
<polygon fill="#8dd3c7" stroke="#000000" points="122.4231,-122 119.4231,-126 98.4231,-126 95.4231,-122 23.5769,-122 23.5769,-86 122.4231,-86 122.4231,-122"/>
<text text-anchor="middle" x="73" y="-99.8" font-family="Times,serif" font-size="14.00" fill="#000000">SharedModule</text>
</g>
<!-- SharedModule&#45;&gt;DespesasModule -->
<g id="edge3" class="edge">
<title>SharedModule&#45;&gt;DespesasModule</title>
<path fill="none" stroke="#000000" d="M73,-122.1061C73,-141.3391 73,-169 73,-169 73,-169 171.0192,-169 171.0192,-169"/>
<polygon fill="#000000" stroke="#000000" points="171.0192,-172.5001 181.0192,-169 171.0192,-165.5001 171.0192,-172.5001"/>
</g>
</g>
</svg>
