<?xml version="1.0" encoding="UTF-8" standalone="no"?>
<!DOCTYPE svg PUBLIC "-//W3C//DTD SVG 1.1//EN"
 "http://www.w3.org/Graphics/SVG/1.1/DTD/svg11.dtd">
<!-- Generated by graphviz version 2.40.1 (20161225.0304)
 -->
<!-- Title: dependencies Pages: 1 -->
<svg width="618pt" height="211pt"
 viewBox="0.00 0.00 618.00 211.00" xmlns="http://www.w3.org/2000/svg" xmlns:xlink="http://www.w3.org/1999/xlink">
<g id="graph0" class="graph" transform="scale(1 1) rotate(0) translate(4 207)">
<title>dependencies</title>
<polygon fill="#ffffff" stroke="transparent" points="-4,4 -4,-207 614,-207 614,4 -4,4"/>
<text text-anchor="start" x="284.0091" y="-42.4" font-family="sans-serif" font-weight="bold" font-size="14.00" fill="#000000">Legend</text>
<polygon fill="#ffffb3" stroke="transparent" points="71,-10 71,-30 91,-30 91,-10 71,-10"/>
<text text-anchor="start" x="94.629" y="-15.4" font-family="sans-serif" font-size="14.00" fill="#000000"> &#160;Declarations</text>
<polygon fill="#8dd3c7" stroke="transparent" points="184,-10 184,-30 204,-30 204,-10 184,-10"/>
<text text-anchor="start" x="207.7251" y="-15.4" font-family="sans-serif" font-size="14.00" fill="#000000"> &#160;Module</text>
<polygon fill="#80b1d3" stroke="transparent" points="270,-10 270,-30 290,-30 290,-10 270,-10"/>
<text text-anchor="start" x="293.7812" y="-15.4" font-family="sans-serif" font-size="14.00" fill="#000000"> &#160;Bootstrap</text>
<polygon fill="#fdb462" stroke="transparent" points="367,-10 367,-30 387,-30 387,-10 367,-10"/>
<text text-anchor="start" x="390.6732" y="-15.4" font-family="sans-serif" font-size="14.00" fill="#000000"> &#160;Providers</text>
<polygon fill="#fb8072" stroke="transparent" points="463,-10 463,-30 483,-30 483,-10 463,-10"/>
<text text-anchor="start" x="486.7258" y="-15.4" font-family="sans-serif" font-size="14.00" fill="#000000"> &#160;Exports</text>
<g id="clust1" class="cluster">
<title>cluster_ProcedimentoModule</title>
<polygon fill="none" stroke="#000000" stroke-dasharray="1,5" points="8,-70 8,-195 602,-195 602,-70 8,-70"/>
</g>
<g id="clust2" class="cluster">
<title>cluster_ProcedimentoModule_declarations</title>
<polygon fill="none" stroke="#000000" points="138,-78 138,-130 594,-130 594,-78 138,-78"/>
</g>
<g id="clust5" class="cluster">
<title>cluster_ProcedimentoModule_imports</title>
<polygon fill="none" stroke="#000000" points="16,-78 16,-130 130,-130 130,-78 16,-78"/>
</g>
<!-- ProcedimentoCadastroComponent -->
<g id="node1" class="node">
<title>ProcedimentoCadastroComponent</title>
<polygon fill="#ffffb3" stroke="#000000" points="586.3529,-122 377.6471,-122 377.6471,-86 586.3529,-86 586.3529,-122"/>
<text text-anchor="middle" x="482" y="-99.8" font-family="Times,serif" font-size="14.00" fill="#000000">ProcedimentoCadastroComponent</text>
</g>
<!-- ProcedimentoModule -->
<g id="node3" class="node">
<title>ProcedimentoModule</title>
<polygon fill="#8dd3c7" stroke="#000000" points="321.8089,-187 318.8089,-191 297.8089,-191 294.8089,-187 184.1911,-187 184.1911,-151 321.8089,-151 321.8089,-187"/>
<text text-anchor="middle" x="253" y="-164.8" font-family="Times,serif" font-size="14.00" fill="#000000">ProcedimentoModule</text>
</g>
<!-- ProcedimentoCadastroComponent&#45;&gt;ProcedimentoModule -->
<g id="edge1" class="edge">
<title>ProcedimentoCadastroComponent&#45;&gt;ProcedimentoModule</title>
<path fill="none" stroke="#000000" d="M482,-122.1061C482,-141.3391 482,-169 482,-169 482,-169 331.7076,-169 331.7076,-169"/>
<polygon fill="#000000" stroke="#000000" points="331.7076,-165.5001 321.7076,-169 331.7075,-172.5001 331.7076,-165.5001"/>
</g>
<!-- ProcedimentosPesquisaComponent -->
<g id="node2" class="node">
<title>ProcedimentosPesquisaComponent</title>
<polygon fill="#ffffb3" stroke="#000000" points="359.5279,-122 146.4721,-122 146.4721,-86 359.5279,-86 359.5279,-122"/>
<text text-anchor="middle" x="253" y="-99.8" font-family="Times,serif" font-size="14.00" fill="#000000">ProcedimentosPesquisaComponent</text>
</g>
<!-- ProcedimentosPesquisaComponent&#45;&gt;ProcedimentoModule -->
<g id="edge2" class="edge">
<title>ProcedimentosPesquisaComponent&#45;&gt;ProcedimentoModule</title>
<path fill="none" stroke="#000000" d="M253,-122.1061C253,-122.1061 253,-140.991 253,-140.991"/>
<polygon fill="#000000" stroke="#000000" points="249.5001,-140.9909 253,-150.991 256.5001,-140.991 249.5001,-140.9909"/>
</g>
<!-- SharedModule -->
<g id="node4" class="node">
<title>SharedModule</title>
<polygon fill="#8dd3c7" stroke="#000000" points="122.4231,-122 119.4231,-126 98.4231,-126 95.4231,-122 23.5769,-122 23.5769,-86 122.4231,-86 122.4231,-122"/>
<text text-anchor="middle" x="73" y="-99.8" font-family="Times,serif" font-size="14.00" fill="#000000">SharedModule</text>
</g>
<!-- SharedModule&#45;&gt;ProcedimentoModule -->
<g id="edge3" class="edge">
<title>SharedModule&#45;&gt;ProcedimentoModule</title>
<path fill="none" stroke="#000000" d="M73,-122.1061C73,-141.3391 73,-169 73,-169 73,-169 174.1792,-169 174.1792,-169"/>
<polygon fill="#000000" stroke="#000000" points="174.1793,-172.5001 184.1792,-169 174.1792,-165.5001 174.1793,-172.5001"/>
</g>
</g>
</svg>
