<?xml version="1.0" encoding="UTF-8" standalone="no"?>
<!DOCTYPE svg PUBLIC "-//W3C//DTD SVG 1.1//EN"
 "http://www.w3.org/Graphics/SVG/1.1/DTD/svg11.dtd">
<!-- Generated by graphviz version 2.40.1 (20161225.0304)
 -->
<!-- Title: dependencies Pages: 1 -->
<svg width="2215pt" height="211pt"
 viewBox="0.00 0.00 2215.00 211.00" xmlns="http://www.w3.org/2000/svg" xmlns:xlink="http://www.w3.org/1999/xlink">
<g id="graph0" class="graph" transform="scale(1 1) rotate(0) translate(4 207)">
<title>dependencies</title>
<polygon fill="#ffffff" stroke="transparent" points="-4,4 -4,-207 2211,-207 2211,4 -4,4"/>
<text text-anchor="start" x="1082.5091" y="-42.4" font-family="sans-serif" font-weight="bold" font-size="14.00" fill="#000000">Legend</text>
<polygon fill="#ffffb3" stroke="transparent" points="869.5,-10 869.5,-30 889.5,-30 889.5,-10 869.5,-10"/>
<text text-anchor="start" x="893.129" y="-15.4" font-family="sans-serif" font-size="14.00" fill="#000000"> &#160;Declarations</text>
<polygon fill="#8dd3c7" stroke="transparent" points="982.5,-10 982.5,-30 1002.5,-30 1002.5,-10 982.5,-10"/>
<text text-anchor="start" x="1006.2251" y="-15.4" font-family="sans-serif" font-size="14.00" fill="#000000"> &#160;Module</text>
<polygon fill="#80b1d3" stroke="transparent" points="1068.5,-10 1068.5,-30 1088.5,-30 1088.5,-10 1068.5,-10"/>
<text text-anchor="start" x="1092.2812" y="-15.4" font-family="sans-serif" font-size="14.00" fill="#000000"> &#160;Bootstrap</text>
<polygon fill="#fdb462" stroke="transparent" points="1165.5,-10 1165.5,-30 1185.5,-30 1185.5,-10 1165.5,-10"/>
<text text-anchor="start" x="1189.1732" y="-15.4" font-family="sans-serif" font-size="14.00" fill="#000000"> &#160;Providers</text>
<polygon fill="#fb8072" stroke="transparent" points="1261.5,-10 1261.5,-30 1281.5,-30 1281.5,-10 1261.5,-10"/>
<text text-anchor="start" x="1285.2258" y="-15.4" font-family="sans-serif" font-size="14.00" fill="#000000"> &#160;Exports</text>
<g id="clust1" class="cluster">
<title>cluster_PacienteModule</title>
<polygon fill="none" stroke="#000000" stroke-dasharray="1,5" points="8,-70 8,-195 2199,-195 2199,-70 8,-70"/>
</g>
<g id="clust2" class="cluster">
<title>cluster_PacienteModule_declarations</title>
<polygon fill="none" stroke="#000000" points="138,-78 138,-130 2191,-130 2191,-78 138,-78"/>
</g>
<g id="clust16" class="cluster">
<title>cluster_PacienteModule_imports</title>
<polygon fill="none" stroke="#000000" points="16,-78 16,-130 130,-130 130,-78 16,-78"/>
</g>
<!-- AnamneseComponent -->
<g id="node1" class="node">
<title>AnamneseComponent</title>
<polygon fill="#ffffb3" stroke="#000000" points="2183.4186,-122 2042.5814,-122 2042.5814,-86 2183.4186,-86 2183.4186,-122"/>
<text text-anchor="middle" x="2113" y="-99.8" font-family="Times,serif" font-size="14.00" fill="#000000">AnamneseComponent</text>
</g>
<!-- PacienteModule -->
<g id="node14" class="node">
<title>PacienteModule</title>
<polygon fill="#8dd3c7" stroke="#000000" points="1125.472,-187 1122.472,-191 1101.472,-191 1098.472,-187 1018.528,-187 1018.528,-151 1125.472,-151 1125.472,-187"/>
<text text-anchor="middle" x="1072" y="-164.8" font-family="Times,serif" font-size="14.00" fill="#000000">PacienteModule</text>
</g>
<!-- AnamneseComponent&#45;&gt;PacienteModule -->
<g id="edge1" class="edge">
<title>AnamneseComponent&#45;&gt;PacienteModule</title>
<path fill="none" stroke="#000000" d="M2113,-122.0908C2113,-145.1328 2113,-182 2113,-182 2113,-182 1135.7766,-182 1135.7766,-182"/>
<polygon fill="#000000" stroke="#000000" points="1135.7766,-178.5001 1125.7766,-182 1135.7766,-185.5001 1135.7766,-178.5001"/>
</g>
<!-- ConsultasComponent -->
<g id="node2" class="node">
<title>ConsultasComponent</title>
<polygon fill="#ffffb3" stroke="#000000" points="2025.0547,-122 1888.9453,-122 1888.9453,-86 2025.0547,-86 2025.0547,-122"/>
<text text-anchor="middle" x="1957" y="-99.8" font-family="Times,serif" font-size="14.00" fill="#000000">ConsultasComponent</text>
</g>
<!-- ConsultasComponent&#45;&gt;PacienteModule -->
<g id="edge2" class="edge">
<title>ConsultasComponent&#45;&gt;PacienteModule</title>
<path fill="none" stroke="#000000" d="M1957,-122.0449C1957,-143.6623 1957,-177 1957,-177 1957,-177 1135.6977,-177 1135.6977,-177"/>
<polygon fill="#000000" stroke="#000000" points="1135.6977,-173.5001 1125.6977,-177 1135.6976,-180.5001 1135.6977,-173.5001"/>
</g>
<!-- CpfPipe -->
<g id="node3" class="node">
<title>CpfPipe</title>
<polygon fill="#ffffb3" stroke="#000000" points="1870.8851,-122 1809.1149,-122 1809.1149,-86 1870.8851,-86 1870.8851,-122"/>
<text text-anchor="middle" x="1840" y="-99.8" font-family="Times,serif" font-size="14.00" fill="#000000">CpfPipe</text>
</g>
<!-- CpfPipe&#45;&gt;PacienteModule -->
<g id="edge3" class="edge">
<title>CpfPipe&#45;&gt;PacienteModule</title>
<path fill="none" stroke="#000000" d="M1840,-122.2228C1840,-142.3652 1840,-172 1840,-172 1840,-172 1135.699,-172 1135.699,-172"/>
<polygon fill="#000000" stroke="#000000" points="1135.6991,-168.5001 1125.699,-172 1135.699,-175.5001 1135.6991,-168.5001"/>
</g>
<!-- OdontogramaComponent -->
<g id="node4" class="node">
<title>OdontogramaComponent</title>
<polygon fill="#ffffb3" stroke="#000000" points="1791.3103,-122 1632.6897,-122 1632.6897,-86 1791.3103,-86 1791.3103,-122"/>
<text text-anchor="middle" x="1712" y="-99.8" font-family="Times,serif" font-size="14.00" fill="#000000">OdontogramaComponent</text>
</g>
<!-- OdontogramaComponent&#45;&gt;PacienteModule -->
<g id="edge4" class="edge">
<title>OdontogramaComponent&#45;&gt;PacienteModule</title>
<path fill="none" stroke="#000000" d="M1712,-122.2222C1712,-140.8285 1712,-167 1712,-167 1712,-167 1135.7396,-167 1135.7396,-167"/>
<polygon fill="#000000" stroke="#000000" points="1135.7396,-163.5001 1125.7396,-167 1135.7395,-170.5001 1135.7396,-163.5001"/>
</g>
<!-- OrcamentosComponent -->
<g id="node5" class="node">
<title>OrcamentosComponent</title>
<polygon fill="#ffffb3" stroke="#000000" points="1614.4692,-122 1465.5308,-122 1465.5308,-86 1614.4692,-86 1614.4692,-122"/>
<text text-anchor="middle" x="1540" y="-99.8" font-family="Times,serif" font-size="14.00" fill="#000000">OrcamentosComponent</text>
</g>
<!-- OrcamentosComponent&#45;&gt;PacienteModule -->
<g id="edge5" class="edge">
<title>OrcamentosComponent&#45;&gt;PacienteModule</title>
<path fill="none" stroke="#000000" d="M1540,-122.0336C1540,-139.0597 1540,-162 1540,-162 1540,-162 1135.6856,-162 1135.6856,-162"/>
<polygon fill="#000000" stroke="#000000" points="1135.6856,-158.5001 1125.6856,-162 1135.6855,-165.5001 1135.6856,-158.5001"/>
</g>
<!-- PacienteCadastroComponent -->
<g id="node6" class="node">
<title>PacienteCadastroComponent</title>
<polygon fill="#ffffb3" stroke="#000000" points="1447.0169,-122 1268.9831,-122 1268.9831,-86 1447.0169,-86 1447.0169,-122"/>
<text text-anchor="middle" x="1358" y="-99.8" font-family="Times,serif" font-size="14.00" fill="#000000">PacienteCadastroComponent</text>
</g>
<!-- PacienteCadastroComponent&#45;&gt;PacienteModule -->
<g id="edge6" class="edge">
<title>PacienteCadastroComponent&#45;&gt;PacienteModule</title>
<path fill="none" stroke="#000000" d="M1358,-122.2396C1358,-137.5706 1358,-157 1358,-157 1358,-157 1135.7944,-157 1135.7944,-157"/>
<polygon fill="#000000" stroke="#000000" points="1135.7944,-153.5001 1125.7944,-157 1135.7944,-160.5001 1135.7944,-153.5001"/>
</g>
<!-- PacienteDadosComponent -->
<g id="node7" class="node">
<title>PacienteDadosComponent</title>
<polygon fill="#ffffb3" stroke="#000000" points="1250.0211,-122 1085.9789,-122 1085.9789,-86 1250.0211,-86 1250.0211,-122"/>
<text text-anchor="middle" x="1168" y="-99.8" font-family="Times,serif" font-size="14.00" fill="#000000">PacienteDadosComponent</text>
</g>
<!-- PacienteDadosComponent&#45;&gt;PacienteModule -->
<g id="edge7" class="edge">
<title>PacienteDadosComponent&#45;&gt;PacienteModule</title>
<path fill="none" stroke="#000000" d="M1105.6129,-122.1061C1105.6129,-122.1061 1105.6129,-140.991 1105.6129,-140.991"/>
<polygon fill="#000000" stroke="#000000" points="1102.113,-140.9909 1105.6129,-150.991 1109.113,-140.991 1102.113,-140.9909"/>
</g>
<!-- PacientesPesquisaComponent -->
<g id="node8" class="node">
<title>PacientesPesquisaComponent</title>
<polygon fill="#ffffb3" stroke="#000000" points="1067.6909,-122 884.3091,-122 884.3091,-86 1067.6909,-86 1067.6909,-122"/>
<text text-anchor="middle" x="976" y="-99.8" font-family="Times,serif" font-size="14.00" fill="#000000">PacientesPesquisaComponent</text>
</g>
<!-- PacientesPesquisaComponent&#45;&gt;PacienteModule -->
<g id="edge8" class="edge">
<title>PacientesPesquisaComponent&#45;&gt;PacienteModule</title>
<path fill="none" stroke="#000000" d="M1043.0547,-122.1061C1043.0547,-122.1061 1043.0547,-140.991 1043.0547,-140.991"/>
<polygon fill="#000000" stroke="#000000" points="1039.5548,-140.9909 1043.0547,-150.991 1046.5548,-140.991 1039.5548,-140.9909"/>
</g>
<!-- PagamentosComponent -->
<g id="node9" class="node">
<title>PagamentosComponent</title>
<polygon fill="#ffffb3" stroke="#000000" points="866.4846,-122 717.5154,-122 717.5154,-86 866.4846,-86 866.4846,-122"/>
<text text-anchor="middle" x="792" y="-99.8" font-family="Times,serif" font-size="14.00" fill="#000000">PagamentosComponent</text>
</g>
<!-- PagamentosComponent&#45;&gt;PacienteModule -->
<g id="edge9" class="edge">
<title>PagamentosComponent&#45;&gt;PacienteModule</title>
<path fill="none" stroke="#000000" d="M792,-122.2396C792,-137.5706 792,-157 792,-157 792,-157 1008.3445,-157 1008.3445,-157"/>
<polygon fill="#000000" stroke="#000000" points="1008.3445,-160.5001 1018.3445,-157 1008.3444,-153.5001 1008.3445,-160.5001"/>
</g>
<!-- ProcedimentosComponent -->
<g id="node10" class="node">
<title>ProcedimentosComponent</title>
<polygon fill="#ffffb3" stroke="#000000" points="699.0365,-122 534.9635,-122 534.9635,-86 699.0365,-86 699.0365,-122"/>
<text text-anchor="middle" x="617" y="-99.8" font-family="Times,serif" font-size="14.00" fill="#000000">ProcedimentosComponent</text>
</g>
<!-- ProcedimentosComponent&#45;&gt;PacienteModule -->
<g id="edge10" class="edge">
<title>ProcedimentosComponent&#45;&gt;PacienteModule</title>
<path fill="none" stroke="#000000" d="M617,-122.0336C617,-139.0597 617,-162 617,-162 617,-162 1008.4677,-162 1008.4677,-162"/>
<polygon fill="#000000" stroke="#000000" points="1008.4678,-165.5001 1018.4677,-162 1008.4677,-158.5001 1008.4678,-165.5001"/>
</g>
<!-- ProntuarioComponent -->
<g id="node11" class="node">
<title>ProntuarioComponent</title>
<polygon fill="#ffffb3" stroke="#000000" points="517.4327,-122 376.5673,-122 376.5673,-86 517.4327,-86 517.4327,-122"/>
<text text-anchor="middle" x="447" y="-99.8" font-family="Times,serif" font-size="14.00" fill="#000000">ProntuarioComponent</text>
</g>
<!-- ProntuarioComponent&#45;&gt;PacienteModule -->
<g id="edge11" class="edge">
<title>ProntuarioComponent&#45;&gt;PacienteModule</title>
<path fill="none" stroke="#000000" d="M447,-122.2222C447,-140.8285 447,-167 447,-167 447,-167 1008.4427,-167 1008.4427,-167"/>
<polygon fill="#000000" stroke="#000000" points="1008.4427,-170.5001 1018.4427,-167 1008.4426,-163.5001 1008.4427,-170.5001"/>
</g>
<!-- RgPipe -->
<g id="node12" class="node">
<title>RgPipe</title>
<polygon fill="#ffffb3" stroke="#000000" points="358.7248,-122 301.2752,-122 301.2752,-86 358.7248,-86 358.7248,-122"/>
<text text-anchor="middle" x="330" y="-99.8" font-family="Times,serif" font-size="14.00" fill="#000000">RgPipe</text>
</g>
<!-- RgPipe&#45;&gt;PacienteModule -->
<g id="edge12" class="edge">
<title>RgPipe&#45;&gt;PacienteModule</title>
<path fill="none" stroke="#000000" d="M330,-122.2228C330,-142.3652 330,-172 330,-172 330,-172 1008.3387,-172 1008.3387,-172"/>
<polygon fill="#000000" stroke="#000000" points="1008.3387,-175.5001 1018.3387,-172 1008.3387,-168.5001 1008.3387,-175.5001"/>
</g>
<!-- StatusPagamentoPipe -->
<g id="node13" class="node">
<title>StatusPagamentoPipe</title>
<polygon fill="#ffffb3" stroke="#000000" points="283.8188,-122 146.1812,-122 146.1812,-86 283.8188,-86 283.8188,-122"/>
<text text-anchor="middle" x="215" y="-99.8" font-family="Times,serif" font-size="14.00" fill="#000000">StatusPagamentoPipe</text>
</g>
<!-- StatusPagamentoPipe&#45;&gt;PacienteModule -->
<g id="edge13" class="edge">
<title>StatusPagamentoPipe&#45;&gt;PacienteModule</title>
<path fill="none" stroke="#000000" d="M215,-122.0449C215,-143.6623 215,-177 215,-177 215,-177 1008.3908,-177 1008.3908,-177"/>
<polygon fill="#000000" stroke="#000000" points="1008.3908,-180.5001 1018.3908,-177 1008.3908,-173.5001 1008.3908,-180.5001"/>
</g>
<!-- SharedModule -->
<g id="node15" class="node">
<title>SharedModule</title>
<polygon fill="#8dd3c7" stroke="#000000" points="122.4231,-122 119.4231,-126 98.4231,-126 95.4231,-122 23.5769,-122 23.5769,-86 122.4231,-86 122.4231,-122"/>
<text text-anchor="middle" x="73" y="-99.8" font-family="Times,serif" font-size="14.00" fill="#000000">SharedModule</text>
</g>
<!-- SharedModule&#45;&gt;PacienteModule -->
<g id="edge14" class="edge">
<title>SharedModule&#45;&gt;PacienteModule</title>
<path fill="none" stroke="#000000" d="M73,-122.0908C73,-145.1328 73,-182 73,-182 73,-182 1008.2894,-182 1008.2894,-182"/>
<polygon fill="#000000" stroke="#000000" points="1008.2895,-185.5001 1018.2894,-182 1008.2894,-178.5001 1008.2895,-185.5001"/>
</g>
</g>
</svg>
