<?xml version="1.0" encoding="UTF-8" standalone="no"?>
<!DOCTYPE svg PUBLIC "-//W3C//DTD SVG 1.1//EN"
 "http://www.w3.org/Graphics/SVG/1.1/DTD/svg11.dtd">
<!-- Generated by graphviz version 2.40.1 (20161225.0304)
 -->
<!-- Title: dependencies Pages: 1 -->
<svg width="504pt" height="211pt"
 viewBox="0.00 0.00 504.00 211.00" xmlns="http://www.w3.org/2000/svg" xmlns:xlink="http://www.w3.org/1999/xlink">
<g id="graph0" class="graph" transform="scale(1 1) rotate(0) translate(4 207)">
<title>dependencies</title>
<polygon fill="#ffffff" stroke="transparent" points="-4,4 -4,-207 500,-207 500,4 -4,4"/>
<text text-anchor="start" x="227.0091" y="-42.4" font-family="sans-serif" font-weight="bold" font-size="14.00" fill="#000000">Legend</text>
<polygon fill="#ffffb3" stroke="transparent" points="14,-10 14,-30 34,-30 34,-10 14,-10"/>
<text text-anchor="start" x="37.629" y="-15.4" font-family="sans-serif" font-size="14.00" fill="#000000"> &#160;Declarations</text>
<polygon fill="#8dd3c7" stroke="transparent" points="127,-10 127,-30 147,-30 147,-10 127,-10"/>
<text text-anchor="start" x="150.7251" y="-15.4" font-family="sans-serif" font-size="14.00" fill="#000000"> &#160;Module</text>
<polygon fill="#80b1d3" stroke="transparent" points="213,-10 213,-30 233,-30 233,-10 213,-10"/>
<text text-anchor="start" x="236.7812" y="-15.4" font-family="sans-serif" font-size="14.00" fill="#000000"> &#160;Bootstrap</text>
<polygon fill="#fdb462" stroke="transparent" points="310,-10 310,-30 330,-30 330,-10 310,-10"/>
<text text-anchor="start" x="333.6732" y="-15.4" font-family="sans-serif" font-size="14.00" fill="#000000"> &#160;Providers</text>
<polygon fill="#fb8072" stroke="transparent" points="406,-10 406,-30 426,-30 426,-10 406,-10"/>
<text text-anchor="start" x="429.7258" y="-15.4" font-family="sans-serif" font-size="14.00" fill="#000000"> &#160;Exports</text>
<g id="clust1" class="cluster">
<title>cluster_OdontogramaModule</title>
<polygon fill="none" stroke="#000000" stroke-dasharray="1,5" points="80,-70 80,-195 416,-195 416,-70 80,-70"/>
</g>
<g id="clust2" class="cluster">
<title>cluster_OdontogramaModule_declarations</title>
<polygon fill="none" stroke="#000000" points="210,-78 210,-130 408,-130 408,-78 210,-78"/>
</g>
<g id="clust4" class="cluster">
<title>cluster_OdontogramaModule_imports</title>
<polygon fill="none" stroke="#000000" points="88,-78 88,-130 202,-130 202,-78 88,-78"/>
</g>
<!-- OdontogramaEditComponent -->
<g id="node1" class="node">
<title>OdontogramaEditComponent</title>
<polygon fill="#ffffb3" stroke="#000000" points="399.6441,-122 218.3559,-122 218.3559,-86 399.6441,-86 399.6441,-122"/>
<text text-anchor="middle" x="309" y="-99.8" font-family="Times,serif" font-size="14.00" fill="#000000">OdontogramaEditComponent</text>
</g>
<!-- OdontogramaModule -->
<g id="node2" class="node">
<title>OdontogramaModule</title>
<polygon fill="#8dd3c7" stroke="#000000" points="300.0282,-187 297.0282,-191 276.0282,-191 273.0282,-187 163.9718,-187 163.9718,-151 300.0282,-151 300.0282,-187"/>
<text text-anchor="middle" x="232" y="-164.8" font-family="Times,serif" font-size="14.00" fill="#000000">OdontogramaModule</text>
</g>
<!-- OdontogramaEditComponent&#45;&gt;OdontogramaModule -->
<g id="edge1" class="edge">
<title>OdontogramaEditComponent&#45;&gt;OdontogramaModule</title>
<path fill="none" stroke="#000000" d="M259.2209,-122.1061C259.2209,-122.1061 259.2209,-140.991 259.2209,-140.991"/>
<polygon fill="#000000" stroke="#000000" points="255.721,-140.9909 259.2209,-150.991 262.721,-140.991 255.721,-140.9909"/>
</g>
<!-- SharedModule -->
<g id="node3" class="node">
<title>SharedModule</title>
<polygon fill="#8dd3c7" stroke="#000000" points="194.4231,-122 191.4231,-126 170.4231,-126 167.4231,-122 95.5769,-122 95.5769,-86 194.4231,-86 194.4231,-122"/>
<text text-anchor="middle" x="145" y="-99.8" font-family="Times,serif" font-size="14.00" fill="#000000">SharedModule</text>
</g>
<!-- SharedModule&#45;&gt;OdontogramaModule -->
<g id="edge2" class="edge">
<title>SharedModule&#45;&gt;OdontogramaModule</title>
<path fill="none" stroke="#000000" d="M178.9737,-122.1061C178.9737,-122.1061 178.9737,-140.991 178.9737,-140.991"/>
<polygon fill="#000000" stroke="#000000" points="175.4738,-140.9909 178.9737,-150.991 182.4738,-140.991 175.4738,-140.9909"/>
</g>
</g>
</svg>
