<?xml version="1.0" encoding="UTF-8" standalone="no"?>
<!DOCTYPE svg PUBLIC "-//W3C//DTD SVG 1.1//EN"
 "http://www.w3.org/Graphics/SVG/1.1/DTD/svg11.dtd">
<!-- Generated by graphviz version 2.40.1 (20161225.0304)
 -->
<!-- Title: dependencies Pages: 1 -->
<svg width="931pt" height="284pt"
 viewBox="0.00 0.00 931.00 284.00" xmlns="http://www.w3.org/2000/svg" xmlns:xlink="http://www.w3.org/1999/xlink">
<g id="graph0" class="graph" transform="scale(1 1) rotate(0) translate(4 280)">
<title>dependencies</title>
<polygon fill="#ffffff" stroke="transparent" points="-4,4 -4,-280 927,-280 927,4 -4,4"/>
<text text-anchor="start" x="440.5091" y="-42.4" font-family="sans-serif" font-weight="bold" font-size="14.00" fill="#000000">Legend</text>
<polygon fill="#ffffb3" stroke="transparent" points="227.5,-10 227.5,-30 247.5,-30 247.5,-10 227.5,-10"/>
<text text-anchor="start" x="251.129" y="-15.4" font-family="sans-serif" font-size="14.00" fill="#000000"> &#160;Declarations</text>
<polygon fill="#8dd3c7" stroke="transparent" points="340.5,-10 340.5,-30 360.5,-30 360.5,-10 340.5,-10"/>
<text text-anchor="start" x="364.2251" y="-15.4" font-family="sans-serif" font-size="14.00" fill="#000000"> &#160;Module</text>
<polygon fill="#80b1d3" stroke="transparent" points="426.5,-10 426.5,-30 446.5,-30 446.5,-10 426.5,-10"/>
<text text-anchor="start" x="450.2812" y="-15.4" font-family="sans-serif" font-size="14.00" fill="#000000"> &#160;Bootstrap</text>
<polygon fill="#fdb462" stroke="transparent" points="523.5,-10 523.5,-30 543.5,-30 543.5,-10 523.5,-10"/>
<text text-anchor="start" x="547.1732" y="-15.4" font-family="sans-serif" font-size="14.00" fill="#000000"> &#160;Providers</text>
<polygon fill="#fb8072" stroke="transparent" points="619.5,-10 619.5,-30 639.5,-30 639.5,-10 619.5,-10"/>
<text text-anchor="start" x="643.2258" y="-15.4" font-family="sans-serif" font-size="14.00" fill="#000000"> &#160;Exports</text>
<g id="clust1" class="cluster">
<title>cluster_AppModule</title>
<polygon fill="none" stroke="#000000" stroke-dasharray="1,5" points="8,-70 8,-268 915,-268 915,-70 8,-70"/>
</g>
<g id="clust2" class="cluster">
<title>cluster_AppModule_declarations</title>
<polygon fill="none" stroke="#000000" points="785,-78 785,-130 907,-130 907,-78 785,-78"/>
</g>
<g id="clust4" class="cluster">
<title>cluster_AppModule_imports</title>
<polygon fill="none" stroke="#000000" points="222,-78 222,-130 777,-130 777,-78 222,-78"/>
</g>
<g id="clust6" class="cluster">
<title>cluster_AppModule_bootstrap</title>
<polygon fill="none" stroke="#000000" points="424,-208 424,-260 548,-260 548,-208 424,-208"/>
</g>
<g id="clust7" class="cluster">
<title>cluster_AppModule_providers</title>
<polygon fill="none" stroke="#000000" points="16,-78 16,-130 214,-130 214,-78 16,-78"/>
</g>
<!-- AppComponent -->
<g id="node1" class="node">
<title>AppComponent</title>
<polygon fill="#ffffb3" stroke="#000000" points="898.9399,-122 793.0601,-122 793.0601,-86 898.9399,-86 898.9399,-122"/>
<text text-anchor="middle" x="846" y="-99.8" font-family="Times,serif" font-size="14.00" fill="#000000">AppComponent</text>
</g>
<!-- AppModule -->
<g id="node2" class="node">
<title>AppModule</title>
<polygon fill="#8dd3c7" stroke="#000000" points="527.6571,-187 524.6571,-191 503.6571,-191 500.6571,-187 444.3429,-187 444.3429,-151 527.6571,-151 527.6571,-187"/>
<text text-anchor="middle" x="486" y="-164.8" font-family="Times,serif" font-size="14.00" fill="#000000">AppModule</text>
</g>
<!-- AppComponent&#45;&gt;AppModule -->
<g id="edge1" class="edge">
<title>AppComponent&#45;&gt;AppModule</title>
<path fill="none" stroke="#000000" d="M846,-122.2843C846,-143.3211 846,-175 846,-175 846,-175 538.0011,-175 538.0011,-175"/>
<polygon fill="#000000" stroke="#000000" points="538.0012,-171.5001 528.0011,-175 538.0011,-178.5001 538.0012,-171.5001"/>
</g>
<!-- AppComponent  -->
<g id="node7" class="node">
<title>AppComponent </title>
<polygon fill="#80b1d3" stroke="#000000" points="540.439,-252 431.561,-252 431.561,-216 540.439,-216 540.439,-252"/>
<text text-anchor="middle" x="486" y="-229.8" font-family="Times,serif" font-size="14.00" fill="#000000">AppComponent </text>
</g>
<!-- AppModule&#45;&gt;AppComponent  -->
<g id="edge6" class="edge">
<title>AppModule&#45;&gt;AppComponent </title>
<path fill="none" stroke="#000000" stroke-dasharray="1,5" d="M486,-187.1061C486,-187.1061 486,-205.991 486,-205.991"/>
<polygon fill="#000000" stroke="#000000" points="482.5001,-205.9909 486,-215.991 489.5001,-205.991 482.5001,-205.9909"/>
</g>
<!-- CategoriaDespesaModule -->
<g id="node3" class="node">
<title>CategoriaDespesaModule</title>
<polygon fill="#8dd3c7" stroke="#000000" points="769.1121,-122 766.1121,-126 745.1121,-126 742.1121,-122 608.8879,-122 608.8879,-86 769.1121,-86 769.1121,-122"/>
<text text-anchor="middle" x="689" y="-99.8" font-family="Times,serif" font-size="14.00" fill="#000000">CategoriaDespesaModule</text>
</g>
<!-- CategoriaDespesaModule&#45;&gt;AppModule -->
<g id="edge2" class="edge">
<title>CategoriaDespesaModule&#45;&gt;AppModule</title>
<path fill="none" stroke="#000000" d="M689,-122.0225C689,-139.3734 689,-163 689,-163 689,-163 538.0617,-163 538.0617,-163"/>
<polygon fill="#000000" stroke="#000000" points="538.0618,-159.5001 528.0617,-163 538.0617,-166.5001 538.0618,-159.5001"/>
</g>
<!-- CoreModule -->
<g id="node4" class="node">
<title>CoreModule</title>
<polygon fill="#8dd3c7" stroke="#000000" points="590.2619,-122 587.2619,-126 566.2619,-126 563.2619,-122 503.7381,-122 503.7381,-86 590.2619,-86 590.2619,-122"/>
<text text-anchor="middle" x="547" y="-99.8" font-family="Times,serif" font-size="14.00" fill="#000000">CoreModule</text>
</g>
<!-- CoreModule&#45;&gt;AppModule -->
<g id="edge3" class="edge">
<title>CoreModule&#45;&gt;AppModule</title>
<path fill="none" stroke="#000000" d="M515.7237,-122.1061C515.7237,-122.1061 515.7237,-140.991 515.7237,-140.991"/>
<polygon fill="#000000" stroke="#000000" points="512.2238,-140.9909 515.7237,-150.991 519.2238,-140.991 512.2238,-140.9909"/>
</g>
<!-- DashboardModule -->
<g id="node5" class="node">
<title>DashboardModule</title>
<polygon fill="#8dd3c7" stroke="#000000" points="486.191,-122 483.191,-126 462.191,-126 459.191,-122 365.809,-122 365.809,-86 486.191,-86 486.191,-122"/>
<text text-anchor="middle" x="426" y="-99.8" font-family="Times,serif" font-size="14.00" fill="#000000">DashboardModule</text>
</g>
<!-- DashboardModule&#45;&gt;AppModule -->
<g id="edge4" class="edge">
<title>DashboardModule&#45;&gt;AppModule</title>
<path fill="none" stroke="#000000" d="M465.1336,-122.1061C465.1336,-122.1061 465.1336,-140.991 465.1336,-140.991"/>
<polygon fill="#000000" stroke="#000000" points="461.6337,-140.9909 465.1336,-150.991 468.6337,-140.991 461.6337,-140.9909"/>
</g>
<!-- SegurancaModule -->
<g id="node6" class="node">
<title>SegurancaModule</title>
<polygon fill="#8dd3c7" stroke="#000000" points="347.8515,-122 344.8515,-126 323.8515,-126 320.8515,-122 230.1485,-122 230.1485,-86 347.8515,-86 347.8515,-122"/>
<text text-anchor="middle" x="289" y="-99.8" font-family="Times,serif" font-size="14.00" fill="#000000">SegurancaModule</text>
</g>
<!-- SegurancaModule&#45;&gt;AppModule -->
<g id="edge5" class="edge">
<title>SegurancaModule&#45;&gt;AppModule</title>
<path fill="none" stroke="#000000" d="M289,-122.0225C289,-139.3734 289,-163 289,-163 289,-163 434.2214,-163 434.2214,-163"/>
<polygon fill="#000000" stroke="#000000" points="434.2214,-166.5001 444.2214,-163 434.2213,-159.5001 434.2214,-166.5001"/>
</g>
<!-- ErrorHandlerService -->
<g id="node8" class="node">
<title>ErrorHandlerService</title>
<ellipse fill="#fdb462" stroke="#000000" cx="115" cy="-104" rx="91.4288" ry="18"/>
<text text-anchor="middle" x="115" y="-99.8" font-family="Times,serif" font-size="14.00" fill="#000000">ErrorHandlerService</text>
</g>
<!-- ErrorHandlerService&#45;&gt;AppModule -->
<g id="edge7" class="edge">
<title>ErrorHandlerService&#45;&gt;AppModule</title>
<path fill="none" stroke="#000000" d="M115,-122.2843C115,-143.3211 115,-175 115,-175 115,-175 434.1628,-175 434.1628,-175"/>
<polygon fill="#000000" stroke="#000000" points="434.1628,-178.5001 444.1628,-175 434.1627,-171.5001 434.1628,-178.5001"/>
</g>
</g>
</svg>
