<?xml version="1.0" encoding="UTF-8" standalone="no"?>
<!DOCTYPE svg PUBLIC "-//W3C//DTD SVG 1.1//EN"
 "http://www.w3.org/Graphics/SVG/1.1/DTD/svg11.dtd">
<!-- Generated by graphviz version 2.40.1 (20161225.0304)
 -->
<!-- Title: dependencies Pages: 1 -->
<svg width="873pt" height="211pt"
 viewBox="0.00 0.00 873.00 211.00" xmlns="http://www.w3.org/2000/svg" xmlns:xlink="http://www.w3.org/1999/xlink">
<g id="graph0" class="graph" transform="scale(1 1) rotate(0) translate(4 207)">
<title>dependencies</title>
<polygon fill="#ffffff" stroke="transparent" points="-4,4 -4,-207 869,-207 869,4 -4,4"/>
<text text-anchor="start" x="411.5091" y="-42.4" font-family="sans-serif" font-weight="bold" font-size="14.00" fill="#000000">Legend</text>
<polygon fill="#ffffb3" stroke="transparent" points="198.5,-10 198.5,-30 218.5,-30 218.5,-10 198.5,-10"/>
<text text-anchor="start" x="222.129" y="-15.4" font-family="sans-serif" font-size="14.00" fill="#000000"> &#160;Declarations</text>
<polygon fill="#8dd3c7" stroke="transparent" points="311.5,-10 311.5,-30 331.5,-30 331.5,-10 311.5,-10"/>
<text text-anchor="start" x="335.2251" y="-15.4" font-family="sans-serif" font-size="14.00" fill="#000000"> &#160;Module</text>
<polygon fill="#80b1d3" stroke="transparent" points="397.5,-10 397.5,-30 417.5,-30 417.5,-10 397.5,-10"/>
<text text-anchor="start" x="421.2812" y="-15.4" font-family="sans-serif" font-size="14.00" fill="#000000"> &#160;Bootstrap</text>
<polygon fill="#fdb462" stroke="transparent" points="494.5,-10 494.5,-30 514.5,-30 514.5,-10 494.5,-10"/>
<text text-anchor="start" x="518.1732" y="-15.4" font-family="sans-serif" font-size="14.00" fill="#000000"> &#160;Providers</text>
<polygon fill="#fb8072" stroke="transparent" points="590.5,-10 590.5,-30 610.5,-30 610.5,-10 590.5,-10"/>
<text text-anchor="start" x="614.2258" y="-15.4" font-family="sans-serif" font-size="14.00" fill="#000000"> &#160;Exports</text>
<g id="clust1" class="cluster">
<title>cluster_UsuariosModule</title>
<polygon fill="none" stroke="#000000" stroke-dasharray="1,5" points="8,-70 8,-195 857,-195 857,-70 8,-70"/>
</g>
<g id="clust2" class="cluster">
<title>cluster_UsuariosModule_declarations</title>
<polygon fill="none" stroke="#000000" points="138,-78 138,-130 849,-130 849,-78 138,-78"/>
</g>
<g id="clust7" class="cluster">
<title>cluster_UsuariosModule_imports</title>
<polygon fill="none" stroke="#000000" points="16,-78 16,-130 130,-130 130,-78 16,-78"/>
</g>
<!-- StatusUsuarioPipe -->
<g id="node1" class="node">
<title>StatusUsuarioPipe</title>
<polygon fill="#ffffb3" stroke="#000000" points="840.9286,-122 721.0714,-122 721.0714,-86 840.9286,-86 840.9286,-122"/>
<text text-anchor="middle" x="781" y="-99.8" font-family="Times,serif" font-size="14.00" fill="#000000">StatusUsuarioPipe</text>
</g>
<!-- UsuariosModule -->
<g id="node5" class="node">
<title>UsuariosModule</title>
<polygon fill="#8dd3c7" stroke="#000000" points="474.8118,-187 471.8118,-191 450.8118,-191 447.8118,-187 365.1882,-187 365.1882,-151 474.8118,-151 474.8118,-187"/>
<text text-anchor="middle" x="420" y="-164.8" font-family="Times,serif" font-size="14.00" fill="#000000">UsuariosModule</text>
</g>
<!-- StatusUsuarioPipe&#45;&gt;UsuariosModule -->
<g id="edge1" class="edge">
<title>StatusUsuarioPipe&#45;&gt;UsuariosModule</title>
<path fill="none" stroke="#000000" d="M781,-122.2843C781,-143.3211 781,-175 781,-175 781,-175 484.8281,-175 484.8281,-175"/>
<polygon fill="#000000" stroke="#000000" points="484.8282,-171.5001 474.8281,-175 484.8281,-178.5001 484.8282,-171.5001"/>
</g>
<!-- UsuarioCadastroComponent -->
<g id="node2" class="node">
<title>UsuarioCadastroComponent</title>
<polygon fill="#ffffb3" stroke="#000000" points="703.9115,-122 528.0885,-122 528.0885,-86 703.9115,-86 703.9115,-122"/>
<text text-anchor="middle" x="616" y="-99.8" font-family="Times,serif" font-size="14.00" fill="#000000">UsuarioCadastroComponent</text>
</g>
<!-- UsuarioCadastroComponent&#45;&gt;UsuariosModule -->
<g id="edge2" class="edge">
<title>UsuarioCadastroComponent&#45;&gt;UsuariosModule</title>
<path fill="none" stroke="#000000" d="M616,-122.0225C616,-139.3734 616,-163 616,-163 616,-163 484.8576,-163 484.8576,-163"/>
<polygon fill="#000000" stroke="#000000" points="484.8576,-159.5001 474.8576,-163 484.8575,-166.5001 484.8576,-159.5001"/>
</g>
<!-- UsuariosPesquisaComponent -->
<g id="node3" class="node">
<title>UsuariosPesquisaComponent</title>
<polygon fill="#ffffb3" stroke="#000000" points="510.0856,-122 329.9144,-122 329.9144,-86 510.0856,-86 510.0856,-122"/>
<text text-anchor="middle" x="420" y="-99.8" font-family="Times,serif" font-size="14.00" fill="#000000">UsuariosPesquisaComponent</text>
</g>
<!-- UsuariosPesquisaComponent&#45;&gt;UsuariosModule -->
<g id="edge3" class="edge">
<title>UsuariosPesquisaComponent&#45;&gt;UsuariosModule</title>
<path fill="none" stroke="#000000" d="M420,-122.1061C420,-122.1061 420,-140.991 420,-140.991"/>
<polygon fill="#000000" stroke="#000000" points="416.5001,-140.9909 420,-150.991 423.5001,-140.991 416.5001,-140.9909"/>
</g>
<!-- UsuariosSenhaComponent -->
<g id="node4" class="node">
<title>UsuariosSenhaComponent</title>
<polygon fill="#ffffb3" stroke="#000000" points="311.8061,-122 146.1939,-122 146.1939,-86 311.8061,-86 311.8061,-122"/>
<text text-anchor="middle" x="229" y="-99.8" font-family="Times,serif" font-size="14.00" fill="#000000">UsuariosSenhaComponent</text>
</g>
<!-- UsuariosSenhaComponent&#45;&gt;UsuariosModule -->
<g id="edge4" class="edge">
<title>UsuariosSenhaComponent&#45;&gt;UsuariosModule</title>
<path fill="none" stroke="#000000" d="M229,-122.0225C229,-139.3734 229,-163 229,-163 229,-163 355.2671,-163 355.2671,-163"/>
<polygon fill="#000000" stroke="#000000" points="355.2671,-166.5001 365.2671,-163 355.267,-159.5001 355.2671,-166.5001"/>
</g>
<!-- SharedModule -->
<g id="node6" class="node">
<title>SharedModule</title>
<polygon fill="#8dd3c7" stroke="#000000" points="122.4231,-122 119.4231,-126 98.4231,-126 95.4231,-122 23.5769,-122 23.5769,-86 122.4231,-86 122.4231,-122"/>
<text text-anchor="middle" x="73" y="-99.8" font-family="Times,serif" font-size="14.00" fill="#000000">SharedModule</text>
</g>
<!-- SharedModule&#45;&gt;UsuariosModule -->
<g id="edge5" class="edge">
<title>SharedModule&#45;&gt;UsuariosModule</title>
<path fill="none" stroke="#000000" d="M73,-122.2843C73,-143.3211 73,-175 73,-175 73,-175 355.0168,-175 355.0168,-175"/>
<polygon fill="#000000" stroke="#000000" points="355.0169,-178.5001 365.0168,-175 355.0168,-171.5001 355.0169,-178.5001"/>
</g>
</g>
</svg>
